<?xml version="1.0" encoding="UTF-8"?>
<!DOCTYPE svg PUBLIC "-//W3C//DTD SVG 1.1//EN" "http://www.w3.org/Graphics/SVG/1.1/DTD/svg11.dtd">
<svg xmlns="http://www.w3.org/2000/svg" version="1.1" width="634px" height="634px" style="shape-rendering:geometricPrecision; text-rendering:geometricPrecision; image-rendering:optimizeQuality; fill-rule:evenodd; clip-rule:evenodd" xmlns:xlink="http://www.w3.org/1999/xlink">
<g><path style="opacity:1" fill="#10243a" d="M -0.5,-0.5 C 127.833,-0.5 256.167,-0.5 384.5,-0.5C 350.605,28.126 316.271,56.2927 281.5,84C 270.65,94.8544 262.15,107.354 256,121.5C 239.489,198.053 223.489,274.72 208,351.5C 201.176,378.463 194.509,405.463 188,432.5C 181.591,473.812 195.091,506.645 228.5,531C 283.235,564.691 337.568,598.858 391.5,633.5C 260.833,633.5 130.167,633.5 -0.5,633.5C -0.5,422.167 -0.5,210.833 -0.5,-0.5 Z"/></g>
<g><path style="opacity:1" fill="#fcfbfb" d="M 384.5,-0.5 C 467.5,-0.5 550.5,-0.5 633.5,-0.5C 633.5,210.833 633.5,422.167 633.5,633.5C 552.833,633.5 472.167,633.5 391.5,633.5C 337.568,598.858 283.235,564.691 228.5,531C 195.091,506.645 181.591,473.812 188,432.5C 194.509,405.463 201.176,378.463 208,351.5C 223.489,274.72 239.489,198.053 256,121.5C 262.15,107.354 270.65,94.8544 281.5,84C 316.271,56.2927 350.605,28.126 384.5,-0.5 Z"/></g>
</svg>
