<?xml version="1.0" encoding="UTF-8"?>
<!DOCTYPE svg PUBLIC "-//W3C//DTD SVG 1.1//EN" "http://www.w3.org/Graphics/SVG/1.1/DTD/svg11.dtd">
<svg xmlns="http://www.w3.org/2000/svg" version="1.1" width="634px" height="634px" style="shape-rendering:geometricPrecision; text-rendering:geometricPrecision; image-rendering:optimizeQuality; fill-rule:evenodd; clip-rule:evenodd" xmlns:xlink="http://www.w3.org/1999/xlink">
<g><path style="opacity:1" fill="#10243a" d="M -0.5,-0.5 C 142.5,-0.5 285.5,-0.5 428.5,-0.5C 404.32,21.1761 379.653,42.3428 354.5,63C 326.702,86.7375 309.536,116.571 303,152.5C 288.108,235.52 273.108,318.52 258,401.5C 251.339,443.835 264.506,478.669 297.5,506C 359.392,548.77 421.392,591.27 483.5,633.5C 322.167,633.5 160.833,633.5 -0.5,633.5C -0.5,422.167 -0.5,210.833 -0.5,-0.5 Z"/></g>
<g><path style="opacity:1" fill="#fcfbfb" d="M 428.5,-0.5 C 496.833,-0.5 565.167,-0.5 633.5,-0.5C 633.5,210.833 633.5,422.167 633.5,633.5C 583.5,633.5 533.5,633.5 483.5,633.5C 421.392,591.27 359.392,548.77 297.5,506C 264.506,478.669 251.339,443.835 258,401.5C 273.108,318.52 288.108,235.52 303,152.5C 309.536,116.571 326.702,86.7375 354.5,63C 379.653,42.3428 404.32,21.1761 428.5,-0.5 Z"/></g>
</svg>
