<?xml version="1.0" encoding="UTF-8"?>
<!DOCTYPE svg PUBLIC "-//W3C//DTD SVG 1.1//EN" "http://www.w3.org/Graphics/SVG/1.1/DTD/svg11.dtd">
<svg xmlns="http://www.w3.org/2000/svg" version="1.1" width="634px" height="634px" style="shape-rendering:geometricPrecision; text-rendering:geometricPrecision; image-rendering:optimizeQuality; fill-rule:evenodd; clip-rule:evenodd" xmlns:xlink="http://www.w3.org/1999/xlink">
<g><path style="opacity:1" fill="#10243a" d="M -0.5,-0.5 C 142.5,-0.5 285.5,-0.5 428.5,-0.5C 392.359,30.8018 356.025,61.9685 319.5,93C 316.182,96.3143 313.682,100.148 312,104.5C 293.129,209.19 274.129,313.857 255,418.5C 252.924,434.537 253.258,450.537 256,466.5C 260.232,475.746 266.399,483.58 274.5,490C 280.167,494.333 285.833,498.667 291.5,503C 355.739,546.276 419.739,589.776 483.5,633.5C 322.167,633.5 160.833,633.5 -0.5,633.5C -0.5,422.167 -0.5,210.833 -0.5,-0.5 Z"/></g>
<g><path style="opacity:1" fill="#fcfbfb" d="M 428.5,-0.5 C 496.833,-0.5 565.167,-0.5 633.5,-0.5C 633.5,210.833 633.5,422.167 633.5,633.5C 583.5,633.5 533.5,633.5 483.5,633.5C 419.739,589.776 355.739,546.276 291.5,503C 285.833,498.667 280.167,494.333 274.5,490C 266.399,483.58 260.232,475.746 256,466.5C 253.258,450.537 252.924,434.537 255,418.5C 274.129,313.857 293.129,209.19 312,104.5C 313.682,100.148 316.182,96.3143 319.5,93C 356.025,61.9685 392.359,30.8018 428.5,-0.5 Z"/></g>
</svg>
