<?xml version="1.0" encoding="UTF-8"?>
<!DOCTYPE svg PUBLIC "-//W3C//DTD SVG 1.1//EN" "http://www.w3.org/Graphics/SVG/1.1/DTD/svg11.dtd">
<svg xmlns="http://www.w3.org/2000/svg" version="1.1" width="1920px" height="1080px" style="shape-rendering:geometricPrecision; text-rendering:geometricPrecision; image-rendering:optimizeQuality; fill-rule:evenodd; clip-rule:evenodd" xmlns:xlink="http://www.w3.org/1999/xlink">
<g><path style="opacity:1" fill="#10243a" d="M -0.5,-0.5 C 432.5,-0.5 865.5,-0.5 1298.5,-0.5C 1297.34,1.25027 1295.67,2.25027 1293.5,2.5C 1290.56,3.47184 1287.9,4.80517 1285.5,6.5C 1285.5,6.83333 1285.5,7.16667 1285.5,7.5C 1283.3,7.12012 1281.64,7.78679 1280.5,9.5C 1279.83,9.5 1279.17,9.5 1278.5,9.5C 1275.07,10.1225 1272.4,11.7892 1270.5,14.5C 1267.06,15.0592 1264.06,16.3926 1261.5,18.5C 1260.17,18.8333 1258.83,19.1667 1257.5,19.5C 1254.07,20.1225 1251.4,21.7892 1249.5,24.5C 1248.5,24.5 1247.5,24.5 1246.5,24.5C 1244.04,25.4651 1241.54,26.4651 1239,27.5C 1237.02,28.4655 1235.52,29.7988 1234.5,31.5C 1232.8,31.5271 1231.47,32.1938 1230.5,33.5C 1226.67,34.3666 1223.34,36.0332 1220.5,38.5C 1219.83,38.5 1219.17,38.5 1218.5,38.5C 1216.15,38.5923 1214.49,39.5923 1213.5,41.5C 1212.83,41.8333 1212.17,42.1667 1211.5,42.5C 1209.83,43.1667 1208.17,43.8333 1206.5,44.5C 1202.95,44.3118 1200.28,45.6452 1198.5,48.5C 1198.17,48.5 1197.83,48.5 1197.5,48.5C 1195.97,48.427 1194.97,49.0937 1194.5,50.5C 1187.73,52.7176 1181.4,55.7176 1175.5,59.5C 1173.06,61.2723 1170.39,62.6056 1167.5,63.5C 1164.91,63.461 1162.91,64.461 1161.5,66.5C 1159.03,66.7549 1157.03,67.7549 1155.5,69.5C 1153.02,70.242 1150.69,71.242 1148.5,72.5C 1146.6,72.7959 1144.93,73.4625 1143.5,74.5C 1141.97,74.427 1140.97,75.0937 1140.5,76.5C 1137.5,77.8386 1134.5,79.1719 1131.5,80.5C 1129.82,80.2852 1128.82,80.9519 1128.5,82.5C 1128.17,82.5 1127.83,82.5 1127.5,82.5C 1125.97,82.427 1124.97,83.0937 1124.5,84.5C 1122.6,84.7959 1120.93,85.4625 1119.5,86.5C 1116.9,86.6206 1114.9,87.6206 1113.5,89.5C 1113.17,89.5 1112.83,89.5 1112.5,89.5C 1108.26,90.1271 1104.59,91.7937 1101.5,94.5C 1099.82,94.2852 1098.82,94.9519 1098.5,96.5C 1098.17,96.5 1097.83,96.5 1097.5,96.5C 1094.07,97.1225 1091.4,98.7892 1089.5,101.5C 1087.62,101.229 1086.29,101.896 1085.5,103.5C 1083.85,103.66 1082.51,104.326 1081.5,105.5C 1079.88,106.038 1078.22,106.371 1076.5,106.5C 1074.97,106.427 1073.97,107.094 1073.5,108.5C 1071.31,109.758 1068.98,110.758 1066.5,111.5C 1063.45,112.208 1060.78,113.541 1058.5,115.5C 1058.5,115.833 1058.5,116.167 1058.5,116.5C 1056.3,116.12 1054.64,116.787 1053.5,118.5C 1052.83,118.5 1052.17,118.5 1051.5,118.5C 1048.07,119.123 1045.4,120.789 1043.5,123.5C 1043.17,123.5 1042.83,123.5 1042.5,123.5C 1040.6,123.796 1038.93,124.463 1037.5,125.5C 1035.97,125.427 1034.97,126.094 1034.5,127.5C 1031.9,127.621 1029.9,128.621 1028.5,130.5C 1028.17,130.5 1027.83,130.5 1027.5,130.5C 1021.07,133.871 1014.41,136.871 1007.5,139.5C 1006.01,140.141 1005.01,141.141 1004.5,142.5C 1004.17,142.5 1003.83,142.5 1003.5,142.5C 999.671,143.367 996.337,145.033 993.5,147.5C 992.833,147.5 992.167,147.5 991.5,147.5C 989.973,147.427 988.973,148.094 988.5,149.5C 984.999,150.395 981.999,152.062 979.5,154.5C 979.167,154.5 978.833,154.5 978.5,154.5C 975.615,154.643 973.282,155.643 971.5,157.5C 971.167,157.5 970.833,157.5 970.5,157.5C 968.973,157.427 967.973,158.094 967.5,159.5C 966.833,159.5 966.5,159.833 966.5,160.5C 965.833,160.833 965.167,161.167 964.5,161.5C 962.517,162.471 960.517,163.471 958.5,164.5C 956.034,165.298 954.034,166.631 952.5,168.5C 952.5,169.167 952.167,169.5 951.5,169.5C 948.988,172.285 946.655,175.285 944.5,178.5C 943.916,180.743 942.75,182.743 941,184.5C 940.401,191.171 939.068,197.505 937,203.5C 934.714,206.365 933.88,209.698 934.5,213.5C 933.542,213.953 932.708,214.619 932,215.5C 930.773,221.24 929.606,226.907 928.5,232.5C 928.5,232.833 928.5,233.167 928.5,233.5C 927.504,233.414 926.671,233.748 926,234.5C 925.505,236.473 925.338,238.473 925.5,240.5C 922.163,242.452 920.829,245.452 921.5,249.5C 920.5,249.5 919.5,249.5 918.5,249.5C 919.042,253.544 918.209,257.211 916,260.5C 915.667,263.5 915.333,266.5 915,269.5C 912.749,272.017 911.916,275.017 912.5,278.5C 910.98,281.579 910.147,284.912 910,288.5C 907.714,291.365 906.88,294.698 907.5,298.5C 906.542,298.953 905.708,299.619 905,300.5C 904.503,302.81 904.337,305.143 904.5,307.5C 904.5,307.833 904.5,308.167 904.5,308.5C 903.504,308.414 902.671,308.748 902,309.5C 901.505,311.473 901.338,313.473 901.5,315.5C 900.571,316.936 899.405,318.269 898,319.5C 897.783,322.488 896.783,325.155 895,327.5C 894.921,331.156 893.921,334.49 892,337.5C 891.502,340.482 891.335,343.482 891.5,346.5C 890.508,346.328 889.842,346.662 889.5,347.5C 889.009,350.12 887.842,352.454 886,354.5C 884.607,360.513 883.107,366.513 881.5,372.5C 880.914,372.709 880.414,373.043 880,373.5C 879.502,376.482 879.335,379.482 879.5,382.5C 879.5,383.167 879.5,383.833 879.5,384.5C 878.833,384.5 878.167,384.5 877.5,384.5C 876.539,386.265 876.205,388.265 876.5,390.5C 875.5,390.5 874.5,390.5 873.5,390.5C 872.48,397.51 871.48,404.51 870.5,411.5C 869.5,411.5 868.5,411.5 867.5,411.5C 867.5,414.833 867.5,418.167 867.5,421.5C 866.504,421.414 865.671,421.748 865,422.5C 864.503,424.81 864.337,427.143 864.5,429.5C 864.5,429.833 864.5,430.167 864.5,430.5C 863.504,430.414 862.671,430.748 862,431.5C 861.861,434.825 860.861,437.825 859,440.5C 858.503,443.146 858.336,445.813 858.5,448.5C 855.924,450.888 854.924,453.888 855.5,457.5C 854.25,457.577 853.417,458.244 853,459.5C 852.778,463.056 851.944,466.389 850.5,469.5C 847.827,475.134 845.66,481.134 844,487.5C 843.502,490.482 843.335,493.482 843.5,496.5C 842.504,496.414 841.671,496.748 841,497.5C 840.503,499.81 840.337,502.143 840.5,504.5C 840.672,505.492 840.338,506.158 839.5,506.5C 838.115,509.417 836.615,512.417 835,515.5C 834.503,518.146 834.336,520.813 834.5,523.5C 832.983,523.511 831.816,524.177 831,525.5C 830.667,528.167 830.333,530.833 830,533.5C 826.811,539.216 824.145,545.216 822,551.5C 821.474,555.599 820.641,559.599 819.5,563.5C 819.5,566.167 819.5,568.833 819.5,571.5C 818.833,572.167 818.167,572.833 817.5,573.5C 815.576,579.128 813.576,584.795 811.5,590.5C 810.513,593.768 810.18,597.102 810.5,600.5C 808.973,600.427 807.973,601.094 807.5,602.5C 806.549,603.919 806.216,605.585 806.5,607.5C 805.5,607.5 804.5,607.5 803.5,607.5C 803.5,610.833 803.5,614.167 803.5,617.5C 802.5,617.5 801.5,617.5 800.5,617.5C 800.665,620.85 800.498,624.183 800,627.5C 796.306,632.49 794.473,638.157 794.5,644.5C 793.5,644.5 792.5,644.5 791.5,644.5C 791.5,647.833 791.5,651.167 791.5,654.5C 791.267,656.062 790.6,657.395 789.5,658.5C 788.776,661.523 787.776,664.523 786.5,667.5C 785.823,670.861 784.823,674.194 783.5,677.5C 782.715,680.18 781.715,682.846 780.5,685.5C 779.909,688.623 778.742,691.623 777,694.5C 776.752,697.919 776.252,701.253 775.5,704.5C 774.833,704.5 774.5,704.833 774.5,705.5C 771.073,709.421 769.74,714.087 770.5,719.5C 769.25,719.577 768.417,720.244 768,721.5C 767.501,727.491 767.334,733.491 767.5,739.5C 766.732,740.263 766.232,741.263 766,742.5C 765.333,746.5 765.333,750.5 766,754.5C 767.095,761.419 767.929,768.419 768.5,775.5C 769.086,775.709 769.586,776.043 770,776.5C 770.186,779.036 770.686,781.369 771.5,783.5C 772.865,786.78 773.865,790.114 774.5,793.5C 774.833,793.5 775.167,793.5 775.5,793.5C 776.942,794.82 777.608,796.486 777.5,798.5C 778.968,799.779 779.635,801.446 779.5,803.5C 780.5,803.5 781.5,803.5 782.5,803.5C 782.088,805.973 783.088,807.306 785.5,807.5C 786.065,810.808 788.065,812.808 791.5,813.5C 791.5,814.5 791.5,815.5 791.5,816.5C 793.806,816.993 796.139,817.326 798.5,817.5C 801.145,818.491 803.478,819.991 805.5,822C 806.793,822.49 808.127,822.657 809.5,822.5C 810.035,824.446 811.368,825.446 813.5,825.5C 813.821,827.048 814.821,827.715 816.5,827.5C 819.618,831.059 823.618,833.059 828.5,833.5C 831.294,834.921 834.294,835.921 837.5,836.5C 839.216,837.971 841.216,838.971 843.5,839.5C 844.183,841.176 845.517,841.843 847.5,841.5C 849.509,843.065 851.843,844.065 854.5,844.5C 855.779,845.968 857.446,846.635 859.5,846.5C 861.176,848.834 863.509,849.834 866.5,849.5C 866.833,849.5 867.167,849.5 867.5,849.5C 867.5,850.833 868.167,851.5 869.5,851.5C 870.609,851.557 871.609,851.89 872.5,852.5C 874.102,854.074 876.102,854.741 878.5,854.5C 878.833,854.5 879.167,854.5 879.5,854.5C 880.287,856.104 881.62,856.771 883.5,856.5C 884.635,858.213 886.302,858.88 888.5,858.5C 889.167,858.833 889.833,859.167 890.5,859.5C 893.088,861.592 896.088,862.925 899.5,863.5C 900.167,863.5 900.833,863.5 901.5,863.5C 902.99,865.28 904.99,865.946 907.5,865.5C 908.5,866.167 909.5,866.833 910.5,867.5C 912.707,869.515 915.374,870.515 918.5,870.5C 920.997,872.871 923.997,873.871 927.5,873.5C 928.167,873.5 928.5,873.833 928.5,874.5C 931.017,876.673 934.017,877.673 937.5,877.5C 940.145,879.31 943.145,880.31 946.5,880.5C 947.167,880.833 947.833,881.167 948.5,881.5C 950.102,883.074 952.102,883.741 954.5,883.5C 955.167,883.5 955.5,883.833 955.5,884.5C 958.145,886.31 961.145,887.31 964.5,887.5C 965.895,889.379 967.895,890.379 970.5,890.5C 974.545,891.864 978.545,893.197 982.5,894.5C 983.895,896.379 985.895,897.379 988.5,897.5C 990.292,897.366 991.958,897.699 993.5,898.5C 996.27,900.941 999.603,902.274 1003.5,902.5C 1003.83,902.5 1004.17,902.5 1004.5,902.5C 1005.64,904.213 1007.3,904.88 1009.5,904.5C 1010.21,905.404 1011.21,905.737 1012.5,905.5C 1012.61,906.117 1012.94,906.617 1013.5,907C 1016.45,908.131 1019.45,908.964 1022.5,909.5C 1023.64,911.213 1025.3,911.88 1027.5,911.5C 1028.29,913.104 1029.62,913.771 1031.5,913.5C 1034.14,915.31 1037.14,916.31 1040.5,916.5C 1042.18,918.834 1044.51,919.834 1047.5,919.5C 1049.28,920.72 1051.28,921.386 1053.5,921.5C 1054.64,923.213 1056.3,923.88 1058.5,923.5C 1059.5,924.167 1060.5,924.833 1061.5,925.5C 1063.71,927.515 1066.37,928.515 1069.5,928.5C 1070.83,928.833 1072.17,929.167 1073.5,929.5C 1074.64,931.213 1076.3,931.88 1078.5,931.5C 1080.56,932.933 1082.89,933.6 1085.5,933.5C 1086.21,934.404 1087.21,934.737 1088.5,934.5C 1088.61,935.117 1088.94,935.617 1089.5,936C 1091.87,936.44 1094.2,936.94 1096.5,937.5C 1098.19,939.818 1100.52,940.818 1103.5,940.5C 1104.21,941.404 1105.21,941.737 1106.5,941.5C 1106.61,942.117 1106.94,942.617 1107.5,943C 1109.87,943.44 1112.2,943.94 1114.5,944.5C 1114.83,944.5 1115.17,944.5 1115.5,944.5C 1117.31,947.407 1119.98,948.741 1123.5,948.5C 1124.61,948.557 1125.61,948.89 1126.5,949.5C 1128.51,950.924 1130.85,951.59 1133.5,951.5C 1133.97,952.906 1134.97,953.573 1136.5,953.5C 1137.17,953.5 1137.5,953.833 1137.5,954.5C 1141.93,956.172 1146.6,957.506 1151.5,958.5C 1152.17,958.5 1152.5,958.833 1152.5,959.5C 1155.29,960.921 1158.29,961.921 1161.5,962.5C 1162.5,963.167 1163.5,963.833 1164.5,964.5C 1166.42,966.977 1169.08,967.977 1172.5,967.5C 1175.88,968.838 1179.21,970.172 1182.5,971.5C 1185.02,973.673 1188.02,974.673 1191.5,974.5C 1192.9,976.379 1194.9,977.379 1197.5,977.5C 1200.11,977.4 1202.44,978.067 1204.5,979.5C 1206.65,982.556 1209.65,983.89 1213.5,983.5C 1214.57,984.434 1215.9,984.768 1217.5,984.5C 1218.61,984.557 1219.61,984.89 1220.5,985.5C 1222.1,987.074 1224.1,987.741 1226.5,987.5C 1226.83,987.5 1227.17,987.5 1227.5,987.5C 1228.29,989.104 1229.62,989.771 1231.5,989.5C 1234.48,992.487 1238.15,994.154 1242.5,994.5C 1243.83,994.5 1245.17,994.5 1246.5,994.5C 1246.5,994.833 1246.5,995.167 1246.5,995.5C 1249.58,998.195 1253.25,999.528 1257.5,999.5C 1258.17,999.5 1258.5,999.833 1258.5,1000.5C 1261.02,1002.67 1264.02,1003.67 1267.5,1003.5C 1268.39,1004.11 1269.39,1004.44 1270.5,1004.5C 1270.5,1005.5 1270.5,1006.5 1270.5,1007.5C 1273.24,1007.4 1275.9,1007.73 1278.5,1008.5C 1280.44,1009.15 1282.44,1009.48 1284.5,1009.5C 1285.17,1009.5 1285.5,1009.83 1285.5,1010.5C 1289.19,1011.5 1292.85,1012.83 1296.5,1014.5C 1298.1,1016.07 1300.1,1016.74 1302.5,1016.5C 1302.83,1016.5 1303.17,1016.5 1303.5,1016.5C 1304.29,1018.1 1305.62,1018.77 1307.5,1018.5C 1308.75,1020.14 1310.42,1021.3 1312.5,1022C 1316.29,1022.87 1319.95,1024.04 1323.5,1025.5C 1325.88,1027.05 1328.55,1027.71 1331.5,1027.5C 1334.76,1028.82 1338.09,1030.16 1341.5,1031.5C 1343.1,1033.07 1345.1,1033.74 1347.5,1033.5C 1351.21,1036.49 1355.55,1038.16 1360.5,1038.5C 1361.17,1038.5 1361.5,1038.83 1361.5,1039.5C 1363.51,1040.92 1365.85,1041.59 1368.5,1041.5C 1369.29,1042.4 1370.29,1043.07 1371.5,1043.5C 1375.35,1045.04 1379.35,1046.37 1383.5,1047.5C 1384.64,1049.21 1386.3,1049.88 1388.5,1049.5C 1391.14,1051.31 1394.14,1052.31 1397.5,1052.5C 1397.84,1053.34 1398.51,1053.67 1399.5,1053.5C 1401.1,1055.07 1403.1,1055.74 1405.5,1055.5C 1406.83,1056.17 1408.17,1056.83 1409.5,1057.5C 1411.62,1059.65 1414.28,1060.65 1417.5,1060.5C 1417.83,1060.5 1418.17,1060.5 1418.5,1060.5C 1418.97,1061.91 1419.97,1062.57 1421.5,1062.5C 1422.64,1064.21 1424.3,1064.88 1426.5,1064.5C 1428.56,1065.93 1430.89,1066.6 1433.5,1066.5C 1434.21,1067.4 1435.21,1067.74 1436.5,1067.5C 1437.29,1069.1 1438.62,1069.77 1440.5,1069.5C 1442.84,1072.16 1445.84,1073.5 1449.5,1073.5C 1451.51,1075.07 1453.84,1076.07 1456.5,1076.5C 1457.17,1076.5 1457.83,1076.5 1458.5,1076.5C 1459.1,1077.9 1460.1,1078.9 1461.5,1079.5C 974.167,1079.5 486.833,1079.5 -0.5,1079.5C -0.5,719.5 -0.5,359.5 -0.5,-0.5 Z"/></g>
<g><path style="opacity:1" fill="#fcfbfb" d="M 1298.5,-0.5 C 1505.5,-0.5 1712.5,-0.5 1919.5,-0.5C 1919.5,359.5 1919.5,719.5 1919.5,1079.5C 1767.83,1079.5 1616.17,1079.5 1464.5,1079.5C 1464.67,1078.51 1464.34,1077.84 1463.5,1077.5C 1463.39,1076.88 1463.06,1076.38 1462.5,1076C 1460.53,1075.5 1458.53,1075.34 1456.5,1075.5C 1454.41,1074.06 1452.08,1073.39 1449.5,1073.5C 1447.78,1072.69 1446.11,1071.69 1444.5,1070.5C 1444.39,1069.88 1444.06,1069.38 1443.5,1069C 1441.13,1068.56 1438.8,1068.06 1436.5,1067.5C 1435.21,1067.74 1434.21,1067.4 1433.5,1066.5C 1431.57,1064.71 1429.24,1063.71 1426.5,1063.5C 1425.83,1063.5 1425.5,1063.17 1425.5,1062.5C 1423.34,1061.59 1421.01,1060.93 1418.5,1060.5C 1418.17,1060.5 1417.83,1060.5 1417.5,1060.5C 1417.39,1059.88 1417.06,1059.38 1416.5,1059C 1414.13,1058.56 1411.8,1058.06 1409.5,1057.5C 1408.17,1056.83 1406.83,1056.17 1405.5,1055.5C 1403.9,1053.93 1401.9,1053.26 1399.5,1053.5C 1398.51,1053.67 1397.84,1053.34 1397.5,1052.5C 1397.2,1051.85 1396.86,1051.18 1396.5,1050.5C 1393.91,1049.52 1391.25,1049.19 1388.5,1049.5C 1387.07,1048.46 1385.4,1047.8 1383.5,1047.5C 1380.1,1044.8 1376.1,1043.47 1371.5,1043.5C 1370.29,1043.07 1369.29,1042.4 1368.5,1041.5C 1366.49,1040.08 1364.15,1039.41 1361.5,1039.5C 1361.5,1038.83 1361.17,1038.5 1360.5,1038.5C 1360.39,1037.88 1360.06,1037.38 1359.5,1037C 1355.59,1035.6 1351.59,1034.43 1347.5,1033.5C 1345.9,1031.93 1343.9,1031.26 1341.5,1031.5C 1338.09,1030.16 1334.76,1028.82 1331.5,1027.5C 1329.57,1025.71 1327.24,1024.71 1324.5,1024.5C 1321.3,1021.36 1317.3,1019.69 1312.5,1019.5C 1312.17,1019.5 1311.83,1019.5 1311.5,1019.5C 1311.39,1018.88 1311.06,1018.38 1310.5,1018C 1308.13,1017.56 1305.8,1017.06 1303.5,1016.5C 1303.17,1016.5 1302.83,1016.5 1302.5,1016.5C 1300.9,1014.93 1298.9,1014.26 1296.5,1014.5C 1295.99,1013.14 1294.99,1012.14 1293.5,1011.5C 1290.91,1010.52 1288.25,1010.19 1285.5,1010.5C 1285.5,1009.83 1285.17,1009.5 1284.5,1009.5C 1282.9,1007.93 1280.9,1007.26 1278.5,1007.5C 1276.05,1005.94 1273.38,1004.94 1270.5,1004.5C 1269.39,1004.44 1268.39,1004.11 1267.5,1003.5C 1264.86,1001.69 1261.86,1000.69 1258.5,1000.5C 1258.5,999.833 1258.17,999.5 1257.5,999.5C 1254.08,997.733 1250.41,996.4 1246.5,995.5C 1246.5,995.167 1246.5,994.833 1246.5,994.5C 1246.05,993.542 1245.38,992.708 1244.5,992C 1241.79,991.605 1239.13,991.105 1236.5,990.5C 1236.17,990.5 1235.83,990.5 1235.5,990.5C 1235.39,989.883 1235.06,989.383 1234.5,989C 1232.13,988.56 1229.8,988.06 1227.5,987.5C 1227.17,987.5 1226.83,987.5 1226.5,987.5C 1224.9,985.926 1222.9,985.259 1220.5,985.5C 1219.61,984.89 1218.61,984.557 1217.5,984.5C 1215.91,982.179 1213.58,981.179 1210.5,981.5C 1209.17,980.833 1207.83,980.167 1206.5,979.5C 1201.94,976.61 1196.94,974.61 1191.5,973.5C 1189.08,973.122 1186.75,972.455 1184.5,971.5C 1181.38,968.036 1177.38,966.369 1172.5,966.5C 1171.51,966.672 1170.84,966.338 1170.5,965.5C 1167.92,963.528 1164.92,962.528 1161.5,962.5C 1161.2,961.85 1160.86,961.183 1160.5,960.5C 1157.91,959.52 1155.25,959.187 1152.5,959.5C 1152.5,958.833 1152.17,958.5 1151.5,958.5C 1149.88,957.011 1147.88,956.011 1145.5,955.5C 1142.91,954.52 1140.25,954.187 1137.5,954.5C 1137.5,953.833 1137.17,953.5 1136.5,953.5C 1136.03,952.094 1135.03,951.427 1133.5,951.5C 1133.39,950.883 1133.06,950.383 1132.5,950C 1130.53,949.505 1128.53,949.338 1126.5,949.5C 1125.61,948.89 1124.61,948.557 1123.5,948.5C 1120.96,946.983 1118.3,945.65 1115.5,944.5C 1115.17,944.5 1114.83,944.5 1114.5,944.5C 1114.39,943.883 1114.06,943.383 1113.5,943C 1111.13,942.56 1108.8,942.06 1106.5,941.5C 1105.21,941.737 1104.21,941.404 1103.5,940.5C 1101.57,938.706 1099.24,937.706 1096.5,937.5C 1096.39,936.883 1096.06,936.383 1095.5,936C 1093.13,935.56 1090.8,935.06 1088.5,934.5C 1087.21,934.737 1086.21,934.404 1085.5,933.5C 1083.82,931.166 1081.49,930.166 1078.5,930.5C 1077.39,930.443 1076.39,930.11 1075.5,929.5C 1073.9,927.926 1071.9,927.259 1069.5,927.5C 1068.99,926.141 1067.99,925.141 1066.5,924.5C 1063.91,923.52 1061.25,923.187 1058.5,923.5C 1057.07,922.463 1055.4,921.796 1053.5,921.5C 1051.28,921.386 1049.28,920.72 1047.5,919.5C 1045.49,917.935 1043.16,916.935 1040.5,916.5C 1037.92,914.528 1034.92,913.528 1031.5,913.5C 1030.49,912.326 1029.15,911.66 1027.5,911.5C 1026.07,910.463 1024.4,909.796 1022.5,909.5C 1019.61,907.277 1016.28,905.944 1012.5,905.5C 1011.21,905.737 1010.21,905.404 1009.5,904.5C 1008.07,903.463 1006.4,902.796 1004.5,902.5C 1004.17,902.5 1003.83,902.5 1003.5,902.5C 1000.69,900.103 997.358,898.77 993.5,898.5C 991.958,897.699 990.292,897.366 988.5,897.5C 986.967,895.755 984.967,894.755 982.5,894.5C 978.858,891.198 974.525,889.198 969.5,888.5C 967.784,888.371 966.117,888.038 964.5,887.5C 961.916,885.528 958.916,884.528 955.5,884.5C 955.5,883.833 955.167,883.5 954.5,883.5C 952.898,881.926 950.898,881.259 948.5,881.5C 947.833,881.167 947.167,880.833 946.5,880.5C 943.916,878.528 940.916,877.528 937.5,877.5C 934.855,875.69 931.855,874.69 928.5,874.5C 928.5,873.833 928.167,873.5 927.5,873.5C 924.7,871.921 921.7,870.588 918.5,869.5C 915.994,868.25 913.327,867.584 910.5,867.5C 909.5,866.833 908.5,866.167 907.5,865.5C 905.698,864.542 903.698,863.875 901.5,863.5C 900.833,863.5 900.167,863.5 899.5,863.5C 897.165,860.835 894.165,859.502 890.5,859.5C 889.833,859.167 889.167,858.833 888.5,858.5C 888.5,857.833 888.167,857.5 887.5,857.5C 887.389,856.883 887.056,856.383 886.5,856C 884.134,855.56 881.801,855.06 879.5,854.5C 879.167,854.5 878.833,854.5 878.5,854.5C 876.898,852.926 874.898,852.259 872.5,852.5C 871.609,851.89 870.609,851.557 869.5,851.5C 868.167,851.5 867.5,850.833 867.5,849.5C 867.167,849.5 866.833,849.5 866.5,849.5C 864.491,847.935 862.157,846.935 859.5,846.5C 857.446,846.635 855.779,845.968 854.5,844.5C 852.91,842.179 850.577,841.179 847.5,841.5C 846.5,840.833 845.5,840.167 844.5,839.5C 842.815,837.182 840.481,836.182 837.5,836.5C 834.294,835.921 831.294,834.921 828.5,833.5C 828.5,832.833 828.167,832.5 827.5,832.5C 827.027,831.094 826.027,830.427 824.5,830.5C 823.508,830.672 822.842,830.338 822.5,829.5C 820.879,827.058 818.546,825.725 815.5,825.5C 814.833,825.5 814.167,825.5 813.5,825.5C 812.965,823.554 811.632,822.554 809.5,822.5C 804.998,818.001 799.665,815.001 793.5,813.5C 792.522,810.675 790.522,809.342 787.5,809.5C 787.813,806.163 786.48,803.829 783.5,802.5C 783.167,802.5 782.833,802.5 782.5,802.5C 782.011,801.005 781.345,799.671 780.5,798.5C 780.167,798.5 779.833,798.5 779.5,798.5C 779.21,795.873 777.876,794.206 775.5,793.5C 775.813,789.958 775.479,786.625 774.5,783.5C 773.719,778.582 773.219,773.582 773,768.5C 772.586,768.043 772.086,767.709 771.5,767.5C 770.501,753.516 770.167,739.516 770.5,725.5C 771.833,720.833 773.167,716.167 774.5,711.5C 774.5,709.5 774.5,707.5 774.5,705.5C 774.5,704.833 774.833,704.5 775.5,704.5C 776.167,704.5 776.833,704.5 777.5,704.5C 778.098,700.778 779.098,697.111 780.5,693.5C 781.002,690.915 782.169,688.582 784,686.5C 784.498,683.518 784.665,680.518 784.5,677.5C 785.167,676.833 785.833,676.167 786.5,675.5C 787.047,672.394 788.047,669.394 789.5,666.5C 790.473,664.052 790.806,661.385 790.5,658.5C 791.5,658.5 792.5,658.5 793.5,658.5C 793.5,655.167 793.5,651.833 793.5,648.5C 794.5,648.5 795.5,648.5 796.5,648.5C 797.473,646.052 797.806,643.385 797.5,640.5C 798.5,640.5 799.5,640.5 800.5,640.5C 800.5,637.167 800.5,633.833 800.5,630.5C 801.167,630.167 801.833,629.833 802.5,629.5C 803.473,627.052 803.806,624.385 803.5,621.5C 804.5,621.5 805.5,621.5 806.5,621.5C 806.5,618.167 806.5,614.833 806.5,611.5C 807.11,610.609 807.443,609.609 807.5,608.5C 808.082,605.728 809.082,603.061 810.5,600.5C 812.707,594.972 814.374,589.306 815.5,583.5C 816.376,583.631 817.043,583.298 817.5,582.5C 818.085,579.497 818.752,576.497 819.5,573.5C 820.086,573.291 820.586,572.957 821,572.5C 821.497,569.854 821.664,567.187 821.5,564.5C 822.496,564.586 823.329,564.252 824,563.5C 824.497,560.854 824.664,558.187 824.5,555.5C 825.496,555.586 826.329,555.252 827,554.5C 827.497,551.854 827.664,549.187 827.5,546.5C 828.496,546.586 829.329,546.252 830,545.5C 830.498,542.518 830.665,539.518 830.5,536.5C 831.5,536.5 832.5,536.5 833.5,536.5C 833.5,533.5 833.5,530.5 833.5,527.5C 833.833,526.833 834.167,526.167 834.5,525.5C 834.833,525.5 835.167,525.5 835.5,525.5C 836.177,522.139 837.177,518.806 838.5,515.5C 838.194,512.615 838.527,509.948 839.5,507.5C 840.496,507.586 841.329,507.252 842,506.5C 842.497,503.854 842.664,501.187 842.5,498.5C 843.5,498.5 844.5,498.5 845.5,498.5C 845.5,495.167 845.5,491.833 845.5,488.5C 846.496,488.586 847.329,488.252 848,487.5C 848.497,484.854 848.664,482.187 848.5,479.5C 849.496,479.586 850.329,479.252 851,478.5C 853.3,472.657 855.133,466.657 856.5,460.5C 857.068,456.443 858.068,452.443 859.5,448.5C 860.082,445.728 861.082,443.061 862.5,440.5C 862.194,437.615 862.527,434.948 863.5,432.5C 864.496,432.586 865.329,432.252 866,431.5C 866.497,428.854 866.664,426.187 866.5,423.5C 867.5,423.5 868.5,423.5 869.5,423.5C 868.88,419.698 869.714,416.365 872,413.5C 871.908,409.707 872.908,406.373 875,403.5C 875.498,400.518 875.665,397.518 875.5,394.5C 876.5,394.5 877.5,394.5 878.5,394.5C 878.253,391.061 878.586,387.728 879.5,384.5C 880.837,381.533 882.17,378.533 883.5,375.5C 884.48,372.914 884.813,370.247 884.5,367.5C 885.496,367.586 886.329,367.252 887,366.5C 887.333,363.5 887.667,360.5 888,357.5C 888.667,356.833 889.333,356.167 890,355.5C 890.191,353.292 890.691,351.292 891.5,349.5C 892.496,349.586 893.329,349.252 894,348.5C 894.176,345.118 894.676,341.785 895.5,338.5C 896.086,338.291 896.586,337.957 897,337.5C 896.996,333.808 897.996,330.475 900,327.5C 900.497,325.19 900.663,322.857 900.5,320.5C 901.5,320.5 902.5,320.5 903.5,320.5C 903.5,317.167 903.5,313.833 903.5,310.5C 903.833,309.833 904.167,309.167 904.5,308.5C 904.5,308.167 904.5,307.833 904.5,307.5C 905.167,305.5 905.833,303.5 906.5,301.5C 907.496,301.586 908.329,301.252 909,300.5C 909.222,296.944 910.056,293.611 911.5,290.5C 911.336,287.813 911.503,285.146 912,282.5C 912.414,282.043 912.914,281.709 913.5,281.5C 914.015,277.919 915.015,274.586 916.5,271.5C 919.22,259.151 922.887,247.151 927.5,235.5C 928.75,235.423 929.583,234.756 930,233.5C 930.497,231.19 930.663,228.857 930.5,226.5C 931.865,223.189 932.865,219.856 933.5,216.5C 934.496,216.586 935.329,216.252 936,215.5C 936.333,212.833 936.667,210.167 937,207.5C 939.286,204.635 940.12,201.302 939.5,197.5C 940.5,197.5 941.5,197.5 942.5,197.5C 942.5,194.167 942.5,190.833 942.5,187.5C 943.496,187.586 944.329,187.252 945,186.5C 945.497,183.854 945.664,181.187 945.5,178.5C 946.853,176.807 948.52,175.474 950.5,174.5C 952.835,171.828 955.168,169.162 957.5,166.5C 960.37,165.567 962.704,163.9 964.5,161.5C 965.167,161.167 965.833,160.833 966.5,160.5C 967.873,160.657 969.207,160.49 970.5,160C 972.596,159.263 974.263,158.097 975.5,156.5C 977.027,156.573 978.027,155.906 978.5,154.5C 978.833,154.5 979.167,154.5 979.5,154.5C 983.001,153.605 986.001,151.938 988.5,149.5C 989.167,149.5 989.833,149.5 990.5,149.5C 993.105,149.379 995.105,148.379 996.5,146.5C 999.1,145.532 1001.43,144.199 1003.5,142.5C 1003.83,142.5 1004.17,142.5 1004.5,142.5C 1012.92,139.789 1020.59,135.789 1027.5,130.5C 1027.83,130.5 1028.17,130.5 1028.5,130.5C 1031.01,130.231 1033.01,129.231 1034.5,127.5C 1036.7,127.88 1038.36,127.213 1039.5,125.5C 1041.03,125.573 1042.03,124.906 1042.5,123.5C 1042.83,123.5 1043.17,123.5 1043.5,123.5C 1046.51,122.27 1049.18,120.603 1051.5,118.5C 1052.17,118.5 1052.83,118.5 1053.5,118.5C 1055.4,118.204 1057.07,117.537 1058.5,116.5C 1058.5,116.167 1058.5,115.833 1058.5,115.5C 1061.54,115.461 1064.2,114.461 1066.5,112.5C 1070.17,112.488 1073.17,111.154 1075.5,108.5C 1077.97,108.245 1079.97,107.245 1081.5,105.5C 1083.38,105.771 1084.71,105.104 1085.5,103.5C 1086.29,101.896 1087.62,101.229 1089.5,101.5C 1091.77,100.316 1094.1,99.3158 1096.5,98.5C 1100.33,98.0907 1103.33,96.424 1105.5,93.5C 1108.13,92.528 1110.46,91.1947 1112.5,89.5C 1112.83,89.5 1113.17,89.5 1113.5,89.5C 1115.38,88.6586 1117.38,88.3253 1119.5,88.5C 1121.89,88.0212 1123.56,86.6879 1124.5,84.5C 1126.03,84.573 1127.03,83.9063 1127.5,82.5C 1127.83,82.5 1128.17,82.5 1128.5,82.5C 1129.39,81.8902 1130.39,81.5569 1131.5,81.5C 1136.04,81.5497 1139.71,79.883 1142.5,76.5C 1144.03,76.573 1145.03,75.9063 1145.5,74.5C 1147.03,74.573 1148.03,73.9063 1148.5,72.5C 1150.69,71.242 1153.02,70.242 1155.5,69.5C 1157.97,69.2451 1159.97,68.2451 1161.5,66.5C 1163.82,66.0075 1165.82,65.0075 1167.5,63.5C 1170.39,62.6056 1173.06,61.2723 1175.5,59.5C 1176.87,59.6567 1178.21,59.49 1179.5,59C 1184.69,56.2407 1189.69,53.4073 1194.5,50.5C 1196.03,50.573 1197.03,49.9063 1197.5,48.5C 1197.83,48.5 1198.17,48.5 1198.5,48.5C 1199.71,47.7659 1201.04,47.4326 1202.5,47.5C 1206.63,47.609 1209.63,45.9423 1211.5,42.5C 1212.17,42.1667 1212.83,41.8333 1213.5,41.5C 1215.57,41.047 1217.23,40.047 1218.5,38.5C 1219.17,38.5 1219.83,38.5 1220.5,38.5C 1224.33,37.6334 1227.66,35.9668 1230.5,33.5C 1231.47,32.1938 1232.8,31.5271 1234.5,31.5C 1237.6,29.6179 1240.93,28.2846 1244.5,27.5C 1247.08,27.5449 1249.08,26.5449 1250.5,24.5C 1253.09,23.2508 1255.42,21.5841 1257.5,19.5C 1258.83,19.1667 1260.17,18.8333 1261.5,18.5C 1265.47,18.5141 1268.81,17.1807 1271.5,14.5C 1273.95,12.9806 1276.28,11.3139 1278.5,9.5C 1279.17,9.5 1279.83,9.5 1280.5,9.5C 1282.4,9.20414 1284.07,8.53747 1285.5,7.5C 1285.5,7.16667 1285.5,6.83333 1285.5,6.5C 1288.85,6.47003 1291.52,5.13669 1293.5,2.5C 1295.67,2.25027 1297.34,1.25027 1298.5,-0.5 Z"/></g>
<g><path style="opacity:1" fill="#76818e" d="M 1293.5,2.5 C 1291.52,5.13669 1288.85,6.47003 1285.5,6.5C 1287.9,4.80517 1290.56,3.47184 1293.5,2.5 Z"/></g>
<g><path style="opacity:1" fill="#9ca3ad" d="M 1285.5,7.5 C 1284.07,8.53747 1282.4,9.20414 1280.5,9.5C 1281.64,7.78679 1283.3,7.12012 1285.5,7.5 Z"/></g>
<g><path style="opacity:1" fill="#6d7986" d="M 1278.5,9.5 C 1276.28,11.3139 1273.95,12.9806 1271.5,14.5C 1271.17,14.5 1270.83,14.5 1270.5,14.5C 1272.4,11.7892 1275.07,10.1225 1278.5,9.5 Z"/></g>
<g><path style="opacity:1" fill="#b0b6bd" d="M 1270.5,14.5 C 1270.83,14.5 1271.17,14.5 1271.5,14.5C 1268.81,17.1807 1265.47,18.5141 1261.5,18.5C 1264.06,16.3926 1267.06,15.0592 1270.5,14.5 Z"/></g>
<g><path style="opacity:1" fill="#586574" d="M 1257.5,19.5 C 1255.42,21.5841 1253.09,23.2508 1250.5,24.5C 1250.17,24.5 1249.83,24.5 1249.5,24.5C 1251.4,21.7892 1254.07,20.1225 1257.5,19.5 Z"/></g>
<g><path style="opacity:1" fill="#5e6b7a" d="M 1246.5,24.5 C 1246.22,25.7777 1245.55,26.7777 1244.5,27.5C 1240.93,28.2846 1237.6,29.6179 1234.5,31.5C 1235.52,29.7988 1237.02,28.4655 1239,27.5C 1241.54,26.4651 1244.04,25.4651 1246.5,24.5 Z"/></g>
<g><path style="opacity:1" fill="#c7cacf" d="M 1246.5,24.5 C 1247.5,24.5 1248.5,24.5 1249.5,24.5C 1249.83,24.5 1250.17,24.5 1250.5,24.5C 1249.08,26.5449 1247.08,27.5449 1244.5,27.5C 1245.55,26.7777 1246.22,25.7777 1246.5,24.5 Z"/></g>
<g><path style="opacity:1" fill="#949ca6" d="M 1230.5,33.5 C 1227.66,35.9668 1224.33,37.6334 1220.5,38.5C 1223.34,36.0332 1226.67,34.3666 1230.5,33.5 Z"/></g>
<g><path style="opacity:1" fill="#5c6978" d="M 1218.5,38.5 C 1217.23,40.047 1215.57,41.047 1213.5,41.5C 1214.49,39.5923 1216.15,38.5923 1218.5,38.5 Z"/></g>
<g><path style="opacity:1" fill="#465566" d="M 1206.5,44.5 C 1205.17,45.5 1203.83,46.5 1202.5,47.5C 1201.04,47.4326 1199.71,47.7659 1198.5,48.5C 1200.28,45.6452 1202.95,44.3118 1206.5,44.5 Z"/></g>
<g><path style="opacity:1" fill="#cccfd4" d="M 1211.5,42.5 C 1209.63,45.9423 1206.63,47.609 1202.5,47.5C 1203.83,46.5 1205.17,45.5 1206.5,44.5C 1208.17,43.8333 1209.83,43.1667 1211.5,42.5 Z"/></g>
<g><path style="opacity:1" fill="#75808d" d="M 1197.5,48.5 C 1197.03,49.9063 1196.03,50.573 1194.5,50.5C 1194.97,49.0937 1195.97,48.427 1197.5,48.5 Z"/></g>
<g><path style="opacity:1" fill="#89929d" d="M 1194.5,50.5 C 1189.69,53.4073 1184.69,56.2407 1179.5,59C 1178.21,59.49 1176.87,59.6567 1175.5,59.5C 1181.4,55.7176 1187.73,52.7176 1194.5,50.5 Z"/></g>
<g><path style="opacity:1" fill="#626f7d" d="M 1167.5,63.5 C 1165.82,65.0075 1163.82,66.0075 1161.5,66.5C 1162.91,64.461 1164.91,63.461 1167.5,63.5 Z"/></g>
<g><path style="opacity:1" fill="#9098a2" d="M 1161.5,66.5 C 1159.97,68.2451 1157.97,69.2451 1155.5,69.5C 1157.03,67.7549 1159.03,66.7549 1161.5,66.5 Z"/></g>
<g><path style="opacity:1" fill="#5e6a79" d="M 1148.5,72.5 C 1148.03,73.9063 1147.03,74.573 1145.5,74.5C 1144.83,74.5 1144.17,74.5 1143.5,74.5C 1144.93,73.4625 1146.6,72.7959 1148.5,72.5 Z"/></g>
<g><path style="opacity:1" fill="#677382" d="M 1143.5,74.5 C 1143.17,75.1667 1142.83,75.8333 1142.5,76.5C 1141.83,76.5 1141.17,76.5 1140.5,76.5C 1140.97,75.0937 1141.97,74.427 1143.5,74.5 Z"/></g>
<g><path style="opacity:1" fill="#afb6bc" d="M 1143.5,74.5 C 1144.17,74.5 1144.83,74.5 1145.5,74.5C 1145.03,75.9063 1144.03,76.573 1142.5,76.5C 1142.83,75.8333 1143.17,75.1667 1143.5,74.5 Z"/></g>
<g><path style="opacity:1" fill="#caced2" d="M 1140.5,76.5 C 1141.17,76.5 1141.83,76.5 1142.5,76.5C 1139.71,79.883 1136.04,81.5497 1131.5,81.5C 1131.5,81.1667 1131.5,80.8333 1131.5,80.5C 1134.5,79.1719 1137.5,77.8386 1140.5,76.5 Z"/></g>
<g><path style="opacity:1" fill="#596676" d="M 1131.5,80.5 C 1131.5,80.8333 1131.5,81.1667 1131.5,81.5C 1130.39,81.5569 1129.39,81.8902 1128.5,82.5C 1128.82,80.9519 1129.82,80.2852 1131.5,80.5 Z"/></g>
<g><path style="opacity:1" fill="#7f8995" d="M 1127.5,82.5 C 1127.03,83.9063 1126.03,84.573 1124.5,84.5C 1124.97,83.0937 1125.97,82.427 1127.5,82.5 Z"/></g>
<g><path style="opacity:1" fill="#c6cacf" d="M 1124.5,84.5 C 1123.56,86.6879 1121.89,88.0212 1119.5,88.5C 1119.5,87.8333 1119.5,87.1667 1119.5,86.5C 1120.93,85.4625 1122.6,84.7959 1124.5,84.5 Z"/></g>
<g><path style="opacity:1" fill="#9199a4" d="M 1119.5,86.5 C 1119.5,87.1667 1119.5,87.8333 1119.5,88.5C 1117.38,88.3253 1115.38,88.6586 1113.5,89.5C 1114.9,87.6206 1116.9,86.6206 1119.5,86.5 Z"/></g>
<g><path style="opacity:1" fill="#3b4a5c" d="M 1112.5,89.5 C 1110.46,91.1947 1108.13,92.528 1105.5,93.5C 1104.29,94.2341 1102.96,94.5674 1101.5,94.5C 1104.59,91.7937 1108.26,90.1271 1112.5,89.5 Z"/></g>
<g><path style="opacity:1" fill="#4d5b6c" d="M 1101.5,94.5 C 1101.18,96.0481 1100.18,96.7148 1098.5,96.5C 1098.82,94.9519 1099.82,94.2852 1101.5,94.5 Z"/></g>
<g><path style="opacity:1" fill="#c2c6cc" d="M 1105.5,93.5 C 1103.33,96.424 1100.33,98.0907 1096.5,98.5C 1096.83,97.8333 1097.17,97.1667 1097.5,96.5C 1097.83,96.5 1098.17,96.5 1098.5,96.5C 1100.18,96.7148 1101.18,96.0481 1101.5,94.5C 1102.96,94.5674 1104.29,94.2341 1105.5,93.5 Z"/></g>
<g><path style="opacity:1" fill="#7f8994" d="M 1097.5,96.5 C 1097.17,97.1667 1096.83,97.8333 1096.5,98.5C 1094.1,99.3158 1091.77,100.316 1089.5,101.5C 1091.4,98.7892 1094.07,97.1225 1097.5,96.5 Z"/></g>
<g><path style="opacity:1" fill="#acb2ba" d="M 1085.5,103.5 C 1084.71,105.104 1083.38,105.771 1081.5,105.5C 1082.51,104.326 1083.85,103.66 1085.5,103.5 Z"/></g>
<g><path style="opacity:1" fill="#636f7d" d="M 1076.5,106.5 C 1076.17,107.167 1075.83,107.833 1075.5,108.5C 1074.83,108.5 1074.17,108.5 1073.5,108.5C 1073.97,107.094 1074.97,106.427 1076.5,106.5 Z"/></g>
<g><path style="opacity:1" fill="#afb5bc" d="M 1081.5,105.5 C 1079.97,107.245 1077.97,108.245 1075.5,108.5C 1075.83,107.833 1076.17,107.167 1076.5,106.5C 1078.22,106.371 1079.88,106.038 1081.5,105.5 Z"/></g>
<g><path style="opacity:1" fill="#d1d4d8" d="M 1073.5,108.5 C 1074.17,108.5 1074.83,108.5 1075.5,108.5C 1073.17,111.154 1070.17,112.488 1066.5,112.5C 1066.5,112.167 1066.5,111.833 1066.5,111.5C 1068.98,110.758 1071.31,109.758 1073.5,108.5 Z"/></g>
<g><path style="opacity:1" fill="#5d6978" d="M 1066.5,111.5 C 1066.5,111.833 1066.5,112.167 1066.5,112.5C 1064.2,114.461 1061.54,115.461 1058.5,115.5C 1060.78,113.541 1063.45,112.208 1066.5,111.5 Z"/></g>
<g><path style="opacity:1" fill="#8a939f" d="M 1058.5,116.5 C 1057.07,117.537 1055.4,118.204 1053.5,118.5C 1054.64,116.787 1056.3,116.12 1058.5,116.5 Z"/></g>
<g><path style="opacity:1" fill="#6a7684" d="M 1051.5,118.5 C 1049.18,120.603 1046.51,122.27 1043.5,123.5C 1045.4,120.789 1048.07,119.123 1051.5,118.5 Z"/></g>
<g><path style="opacity:1" fill="#5f6b7a" d="M 1042.5,123.5 C 1042.03,124.906 1041.03,125.573 1039.5,125.5C 1038.83,125.5 1038.17,125.5 1037.5,125.5C 1038.93,124.463 1040.6,123.796 1042.5,123.5 Z"/></g>
<g><path style="opacity:1" fill="#9ba3ac" d="M 1037.5,125.5 C 1038.17,125.5 1038.83,125.5 1039.5,125.5C 1038.36,127.213 1036.7,127.88 1034.5,127.5C 1034.97,126.094 1035.97,125.427 1037.5,125.5 Z"/></g>
<g><path style="opacity:1" fill="#9ea5ae" d="M 1034.5,127.5 C 1033.01,129.231 1031.01,130.231 1028.5,130.5C 1029.9,128.621 1031.9,127.621 1034.5,127.5 Z"/></g>
<g><path style="opacity:1" fill="#979fa8" d="M 1027.5,130.5 C 1020.59,135.789 1012.92,139.789 1004.5,142.5C 1005.01,141.141 1006.01,140.141 1007.5,139.5C 1014.41,136.871 1021.07,133.871 1027.5,130.5 Z"/></g>
<g><path style="opacity:1" fill="#89929d" d="M 1003.5,142.5 C 1001.43,144.199 999.1,145.532 996.5,146.5C 995.609,147.11 994.609,147.443 993.5,147.5C 996.337,145.033 999.671,143.367 1003.5,142.5 Z"/></g>
<g><path style="opacity:1" fill="#737e8a" d="M 991.5,147.5 C 991.167,148.167 990.833,148.833 990.5,149.5C 989.833,149.5 989.167,149.5 988.5,149.5C 988.973,148.094 989.973,147.427 991.5,147.5 Z"/></g>
<g><path style="opacity:1" fill="#c2c6cb" d="M 996.5,146.5 C 995.105,148.379 993.105,149.379 990.5,149.5C 990.833,148.833 991.167,148.167 991.5,147.5C 992.167,147.5 992.833,147.5 993.5,147.5C 994.609,147.443 995.609,147.11 996.5,146.5 Z"/></g>
<g><path style="opacity:1" fill="#a0a7b0" d="M 988.5,149.5 C 986.001,151.938 983.001,153.605 979.5,154.5C 981.999,152.062 984.999,150.395 988.5,149.5 Z"/></g>
<g><path style="opacity:1" fill="#838d98" d="M 978.5,154.5 C 978.027,155.906 977.027,156.573 975.5,156.5C 974.292,157.234 972.959,157.567 971.5,157.5C 973.282,155.643 975.615,154.643 978.5,154.5 Z"/></g>
<g><path style="opacity:1" fill="#687582" d="M 970.5,157.5 C 970.027,158.906 969.027,159.573 967.5,159.5C 967.973,158.094 968.973,157.427 970.5,157.5 Z"/></g>
<g><path style="opacity:1" fill="#c0c5ca" d="M 975.5,156.5 C 974.263,158.097 972.596,159.263 970.5,160C 969.207,160.49 967.873,160.657 966.5,160.5C 966.5,159.833 966.833,159.5 967.5,159.5C 969.027,159.573 970.027,158.906 970.5,157.5C 970.833,157.5 971.167,157.5 971.5,157.5C 972.959,157.567 974.292,157.234 975.5,156.5 Z"/></g>
<g><path style="opacity:1" fill="#949ca6" d="M 964.5,161.5 C 962.704,163.9 960.37,165.567 957.5,166.5C 957.833,165.833 958.167,165.167 958.5,164.5C 960.517,163.471 962.517,162.471 964.5,161.5 Z"/></g>
<g><path style="opacity:1" fill="#404e60" d="M 958.5,164.5 C 958.167,165.167 957.833,165.833 957.5,166.5C 955.833,167.167 954.167,167.833 952.5,168.5C 954.034,166.631 956.034,165.298 958.5,164.5 Z"/></g>
<g><path style="opacity:1" fill="#b0b6bd" d="M 957.5,166.5 C 955.168,169.162 952.835,171.828 950.5,174.5C 950.366,172.708 950.699,171.042 951.5,169.5C 952.167,169.5 952.5,169.167 952.5,168.5C 954.167,167.833 955.833,167.167 957.5,166.5 Z"/></g>
<g><path style="opacity:1" fill="#64707e" d="M 951.5,169.5 C 950.699,171.042 950.366,172.708 950.5,174.5C 948.52,175.474 946.853,176.807 945.5,178.5C 945.167,178.5 944.833,178.5 944.5,178.5C 946.655,175.285 948.988,172.285 951.5,169.5 Z"/></g>
<g><path style="opacity:1" fill="#bfc3c9" d="M 944.5,178.5 C 944.833,178.5 945.167,178.5 945.5,178.5C 945.664,181.187 945.497,183.854 945,186.5C 944.329,187.252 943.496,187.586 942.5,187.5C 944.126,184.754 944.793,181.754 944.5,178.5 Z"/></g>
<g><path style="opacity:1" fill="#65717f" d="M 944.5,178.5 C 944.793,181.754 944.126,184.754 942.5,187.5C 941.523,190.287 941.19,193.287 941.5,196.5C 940.5,196.5 939.5,196.5 938.5,196.5C 939.12,200.302 938.286,203.635 936,206.5C 935.814,209.036 935.314,211.369 934.5,213.5C 933.88,209.698 934.714,206.365 937,203.5C 939.068,197.505 940.401,191.171 941,184.5C 942.75,182.743 943.916,180.743 944.5,178.5 Z"/></g>
<g><path style="opacity:1" fill="#bdc2c8" d="M 942.5,187.5 C 942.5,190.833 942.5,194.167 942.5,197.5C 941.5,197.5 940.5,197.5 939.5,197.5C 940.12,201.302 939.286,204.635 937,207.5C 936.667,210.167 936.333,212.833 936,215.5C 935.329,216.252 934.496,216.586 933.5,216.5C 934.11,215.609 934.443,214.609 934.5,213.5C 935.314,211.369 935.814,209.036 936,206.5C 938.286,203.635 939.12,200.302 938.5,196.5C 939.5,196.5 940.5,196.5 941.5,196.5C 941.19,193.287 941.523,190.287 942.5,187.5 Z"/></g>
<g><path style="opacity:1" fill="#c3c7cc" d="M 930.5,226.5 C 930.663,228.857 930.497,231.19 930,233.5C 929.583,234.756 928.75,235.423 927.5,235.5C 927.833,234.833 928.167,234.167 928.5,233.5C 928.5,233.167 928.5,232.833 928.5,232.5C 929.167,230.5 929.833,228.5 930.5,226.5 Z"/></g>
<g><path style="opacity:1" fill="#75808d" d="M 934.5,213.5 C 934.443,214.609 934.11,215.609 933.5,216.5C 932.865,219.856 931.865,223.189 930.5,226.5C 929.833,228.5 929.167,230.5 928.5,232.5C 929.606,226.907 930.773,221.24 932,215.5C 932.708,214.619 933.542,213.953 934.5,213.5 Z"/></g>
<g><path style="opacity:1" fill="#7e8894" d="M 928.5,233.5 C 928.167,234.167 927.833,234.833 927.5,235.5C 922.887,247.151 919.22,259.151 916.5,271.5C 916.5,268.167 916.5,264.833 916.5,261.5C 917.5,261.5 918.5,261.5 919.5,261.5C 919.335,258.482 919.502,255.482 920,252.5C 921.79,248.496 923.624,244.496 925.5,240.5C 925.338,238.473 925.505,236.473 926,234.5C 926.671,233.748 927.504,233.414 928.5,233.5 Z"/></g>
<g><path style="opacity:1" fill="#2b3c50" d="M 925.5,240.5 C 923.624,244.496 921.79,248.496 920,252.5C 919.502,255.482 919.335,258.482 919.5,261.5C 918.5,261.5 917.5,261.5 916.5,261.5C 916.5,264.833 916.5,268.167 916.5,271.5C 915.504,271.414 914.671,271.748 914,272.5C 913.809,274.708 913.309,276.708 912.5,278.5C 911.916,275.017 912.749,272.017 915,269.5C 915.333,266.5 915.667,263.5 916,260.5C 918.209,257.211 919.042,253.544 918.5,249.5C 919.5,249.5 920.5,249.5 921.5,249.5C 920.829,245.452 922.163,242.452 925.5,240.5 Z"/></g>
<g><path style="opacity:1" fill="#7f8995" d="M 916.5,271.5 C 915.015,274.586 914.015,277.919 913.5,281.5C 912.914,281.709 912.414,282.043 912,282.5C 911.503,285.146 911.336,287.813 911.5,290.5C 910.504,290.414 909.671,290.748 909,291.5C 908.814,294.036 908.314,296.369 907.5,298.5C 906.88,294.698 907.714,291.365 910,288.5C 910.147,284.912 910.98,281.579 912.5,278.5C 913.309,276.708 913.809,274.708 914,272.5C 914.671,271.748 915.504,271.414 916.5,271.5 Z"/></g>
<g><path style="opacity:1" fill="#d1d4d8" d="M 911.5,290.5 C 910.056,293.611 909.222,296.944 909,300.5C 908.329,301.252 907.496,301.586 906.5,301.5C 907.11,300.609 907.443,299.609 907.5,298.5C 908.314,296.369 908.814,294.036 909,291.5C 909.671,290.748 910.504,290.414 911.5,290.5 Z"/></g>
<g><path style="opacity:1" fill="#87909b" d="M 907.5,298.5 C 907.443,299.609 907.11,300.609 906.5,301.5C 905.833,303.5 905.167,305.5 904.5,307.5C 904.337,305.143 904.503,302.81 905,300.5C 905.708,299.619 906.542,298.953 907.5,298.5 Z"/></g>
<g><path style="opacity:1" fill="#88919c" d="M 904.5,308.5 C 904.167,309.167 903.833,309.833 903.5,310.5C 902.833,313.167 902.167,315.833 901.5,318.5C 901.5,317.5 901.5,316.5 901.5,315.5C 901.338,313.473 901.505,311.473 902,309.5C 902.671,308.748 903.504,308.414 904.5,308.5 Z"/></g>
<g><path style="opacity:1" fill="#455465" d="M 901.5,315.5 C 901.5,316.5 901.5,317.5 901.5,318.5C 898.828,320.391 897.828,323.058 898.5,326.5C 897.542,326.953 896.708,327.619 896,328.5C 895.503,331.146 895.336,333.813 895.5,336.5C 894.833,337.167 894.167,337.833 893.5,338.5C 892.833,341.167 892.167,343.833 891.5,346.5C 891.335,343.482 891.502,340.482 892,337.5C 893.921,334.49 894.921,331.156 895,327.5C 896.783,325.155 897.783,322.488 898,319.5C 899.405,318.269 900.571,316.936 901.5,315.5 Z"/></g>
<g><path style="opacity:1" fill="#d1d4d8" d="M 903.5,310.5 C 903.5,313.833 903.5,317.167 903.5,320.5C 902.5,320.5 901.5,320.5 900.5,320.5C 900.663,322.857 900.497,325.19 900,327.5C 897.996,330.475 896.996,333.808 897,337.5C 896.586,337.957 896.086,338.291 895.5,338.5C 894.676,341.785 894.176,345.118 894,348.5C 893.329,349.252 892.496,349.586 891.5,349.5C 893.324,346.154 893.99,342.487 893.5,338.5C 894.167,337.833 894.833,337.167 895.5,336.5C 896.135,333.114 897.135,329.78 898.5,326.5C 897.828,323.058 898.828,320.391 901.5,318.5C 902.167,315.833 902.833,313.167 903.5,310.5 Z"/></g>
<g><path style="opacity:1" fill="#8c949f" d="M 898.5,326.5 C 897.135,329.78 896.135,333.114 895.5,336.5C 895.336,333.813 895.503,331.146 896,328.5C 896.708,327.619 897.542,326.953 898.5,326.5 Z"/></g>
<g><path style="opacity:1" fill="#99a1aa" d="M 893.5,338.5 C 893.99,342.487 893.324,346.154 891.5,349.5C 890.691,351.292 890.191,353.292 890,355.5C 889.333,356.167 888.667,356.833 888,357.5C 887.667,360.5 887.333,363.5 887,366.5C 886.329,367.252 885.496,367.586 884.5,367.5C 886.164,364.134 886.997,360.467 887,356.5C 889.251,353.983 890.084,350.983 889.5,347.5C 889.842,346.662 890.508,346.328 891.5,346.5C 892.167,343.833 892.833,341.167 893.5,338.5 Z"/></g>
<g><path style="opacity:1" fill="#415062" d="M 889.5,347.5 C 890.084,350.983 889.251,353.983 887,356.5C 886.997,360.467 886.164,364.134 884.5,367.5C 882.361,372.32 880.694,377.32 879.5,382.5C 879.335,379.482 879.502,376.482 880,373.5C 880.414,373.043 880.914,372.709 881.5,372.5C 883.107,366.513 884.607,360.513 886,354.5C 887.842,352.454 889.009,350.12 889.5,347.5 Z"/></g>
<g><path style="opacity:1" fill="#959da7" d="M 884.5,367.5 C 884.813,370.247 884.48,372.914 883.5,375.5C 882.17,378.533 880.837,381.533 879.5,384.5C 879.5,383.833 879.5,383.167 879.5,382.5C 880.694,377.32 882.361,372.32 884.5,367.5 Z"/></g>
<g><path style="opacity:1" fill="#9ca4ad" d="M 877.5,384.5 C 878.167,384.5 878.833,384.5 879.5,384.5C 878.586,387.728 878.253,391.061 878.5,394.5C 877.5,394.5 876.5,394.5 875.5,394.5C 877.299,391.495 877.966,388.162 877.5,384.5 Z"/></g>
<g><path style="opacity:1" fill="#404f61" d="M 877.5,384.5 C 877.966,388.162 877.299,391.495 875.5,394.5C 874.206,400.297 872.539,405.964 870.5,411.5C 871.48,404.51 872.48,397.51 873.5,390.5C 874.5,390.5 875.5,390.5 876.5,390.5C 876.205,388.265 876.539,386.265 877.5,384.5 Z"/></g>
<g><path style="opacity:1" fill="#515f6f" d="M 870.5,411.5 C 869.019,414.728 868.019,418.061 867.5,421.5C 867.5,418.167 867.5,414.833 867.5,411.5C 868.5,411.5 869.5,411.5 870.5,411.5 Z"/></g>
<g><path style="opacity:1" fill="#a9afb7" d="M 875.5,394.5 C 875.665,397.518 875.498,400.518 875,403.5C 872.908,406.373 871.908,409.707 872,413.5C 869.714,416.365 868.88,419.698 869.5,423.5C 868.5,423.5 867.5,423.5 866.5,423.5C 866.833,422.833 867.167,422.167 867.5,421.5C 868.019,418.061 869.019,414.728 870.5,411.5C 872.539,405.964 874.206,400.297 875.5,394.5 Z"/></g>
<g><path style="opacity:1" fill="#576473" d="M 867.5,421.5 C 867.167,422.167 866.833,422.833 866.5,423.5C 865.833,425.5 865.167,427.5 864.5,429.5C 864.337,427.143 864.503,424.81 865,422.5C 865.671,421.748 866.504,421.414 867.5,421.5 Z"/></g>
<g><path style="opacity:1" fill="#a6acb5" d="M 866.5,423.5 C 866.664,426.187 866.497,428.854 866,431.5C 865.329,432.252 864.496,432.586 863.5,432.5C 863.833,431.833 864.167,431.167 864.5,430.5C 864.5,430.167 864.5,429.833 864.5,429.5C 865.167,427.5 865.833,425.5 866.5,423.5 Z"/></g>
<g><path style="opacity:1" fill="#4f5d6d" d="M 864.5,430.5 C 864.167,431.167 863.833,431.833 863.5,432.5C 862.527,434.948 862.194,437.615 862.5,440.5C 861.504,440.414 860.671,440.748 860,441.5C 859.503,443.81 859.337,446.143 859.5,448.5C 859.167,448.5 858.833,448.5 858.5,448.5C 858.336,445.813 858.503,443.146 859,440.5C 860.861,437.825 861.861,434.825 862,431.5C 862.671,430.748 863.504,430.414 864.5,430.5 Z"/></g>
<g><path style="opacity:1" fill="#a3aab2" d="M 862.5,440.5 C 861.082,443.061 860.082,445.728 859.5,448.5C 859.337,446.143 859.503,443.81 860,441.5C 860.671,440.748 861.504,440.414 862.5,440.5 Z"/></g>
<g><path style="opacity:1" fill="#8c949f" d="M 858.5,448.5 C 858.833,448.5 859.167,448.5 859.5,448.5C 858.068,452.443 857.068,456.443 856.5,460.5C 855.833,460.5 855.167,460.5 854.5,460.5C 855.11,459.609 855.443,458.609 855.5,457.5C 854.924,453.888 855.924,450.888 858.5,448.5 Z"/></g>
<g><path style="opacity:1" fill="#b2b7be" d="M 854.5,460.5 C 855.167,460.5 855.833,460.5 856.5,460.5C 855.133,466.657 853.3,472.657 851,478.5C 850.329,479.252 849.496,479.586 848.5,479.5C 850.299,476.495 850.966,473.162 850.5,469.5C 851.496,469.586 852.329,469.252 853,468.5C 853.183,465.635 853.683,462.969 854.5,460.5 Z"/></g>
<g><path style="opacity:1" fill="#546271" d="M 855.5,457.5 C 855.443,458.609 855.11,459.609 854.5,460.5C 853.683,462.969 853.183,465.635 853,468.5C 852.329,469.252 851.496,469.586 850.5,469.5C 851.944,466.389 852.778,463.056 853,459.5C 853.417,458.244 854.25,457.577 855.5,457.5 Z"/></g>
<g><path style="opacity:1" fill="#4f5d6d" d="M 850.5,469.5 C 850.966,473.162 850.299,476.495 848.5,479.5C 847.953,482.606 846.953,485.606 845.5,488.5C 844.833,491.167 844.167,493.833 843.5,496.5C 843.335,493.482 843.502,490.482 844,487.5C 845.66,481.134 847.827,475.134 850.5,469.5 Z"/></g>
<g><path style="opacity:1" fill="#aab0b8" d="M 848.5,479.5 C 848.664,482.187 848.497,484.854 848,487.5C 847.329,488.252 846.496,488.586 845.5,488.5C 846.953,485.606 847.953,482.606 848.5,479.5 Z"/></g>
<g><path style="opacity:1" fill="#b5bac1" d="M 845.5,488.5 C 845.5,491.833 845.5,495.167 845.5,498.5C 844.5,498.5 843.5,498.5 842.5,498.5C 842.833,497.833 843.167,497.167 843.5,496.5C 844.167,493.833 844.833,491.167 845.5,488.5 Z"/></g>
<g><path style="opacity:1" fill="#636f7e" d="M 843.5,496.5 C 843.167,497.167 842.833,497.833 842.5,498.5C 841.833,500.5 841.167,502.5 840.5,504.5C 840.337,502.143 840.503,499.81 841,497.5C 841.671,496.748 842.504,496.414 843.5,496.5 Z"/></g>
<g><path style="opacity:1" fill="#b0b6bd" d="M 842.5,498.5 C 842.664,501.187 842.497,503.854 842,506.5C 841.329,507.252 840.496,507.586 839.5,507.5C 839.5,507.167 839.5,506.833 839.5,506.5C 840.338,506.158 840.672,505.492 840.5,504.5C 841.167,502.5 841.833,500.5 842.5,498.5 Z"/></g>
<g><path style="opacity:1" fill="#667280" d="M 839.5,506.5 C 839.5,506.833 839.5,507.167 839.5,507.5C 838.527,509.948 838.194,512.615 838.5,515.5C 837.85,515.804 837.183,516.137 836.5,516.5C 835.516,519.428 835.183,522.428 835.5,525.5C 835.167,525.5 834.833,525.5 834.5,525.5C 834.5,524.833 834.5,524.167 834.5,523.5C 834.336,520.813 834.503,518.146 835,515.5C 836.615,512.417 838.115,509.417 839.5,506.5 Z"/></g>
<g><path style="opacity:1" fill="#b4b9c0" d="M 838.5,515.5 C 837.177,518.806 836.177,522.139 835.5,525.5C 835.183,522.428 835.516,519.428 836.5,516.5C 837.183,516.137 837.85,515.804 838.5,515.5 Z"/></g>
<g><path style="opacity:1" fill="#707b88" d="M 834.5,525.5 C 834.167,526.167 833.833,526.833 833.5,527.5C 832.833,529.5 832.167,531.5 831.5,533.5C 831.337,531.143 831.503,528.81 832,526.5C 832.671,525.748 833.504,525.414 834.5,525.5 Z"/></g>
<g><path style="opacity:1" fill="#2b3c50" d="M 834.5,523.5 C 834.5,524.167 834.5,524.833 834.5,525.5C 833.504,525.414 832.671,525.748 832,526.5C 831.503,528.81 831.337,531.143 831.5,533.5C 828.807,536.581 827.807,540.247 828.5,544.5C 827.504,544.414 826.671,544.748 826,545.5C 825.503,547.81 825.337,550.143 825.5,552.5C 824.542,552.953 823.708,553.619 823,554.5C 822.503,556.81 822.337,559.143 822.5,561.5C 821.5,562.167 820.5,562.833 819.5,563.5C 820.641,559.599 821.474,555.599 822,551.5C 824.145,545.216 826.811,539.216 830,533.5C 830.333,530.833 830.667,528.167 831,525.5C 831.816,524.177 832.983,523.511 834.5,523.5 Z"/></g>
<g><path style="opacity:1" fill="#b2b8bf" d="M 833.5,527.5 C 833.5,530.5 833.5,533.5 833.5,536.5C 832.5,536.5 831.5,536.5 830.5,536.5C 830.665,539.518 830.498,542.518 830,545.5C 829.329,546.252 828.496,546.586 827.5,546.5C 827.833,545.833 828.167,545.167 828.5,544.5C 827.807,540.247 828.807,536.581 831.5,533.5C 832.167,531.5 832.833,529.5 833.5,527.5 Z"/></g>
<g><path style="opacity:1" fill="#77828e" d="M 828.5,544.5 C 828.167,545.167 827.833,545.833 827.5,546.5C 826.833,548.5 826.167,550.5 825.5,552.5C 825.337,550.143 825.503,547.81 826,545.5C 826.671,544.748 827.504,544.414 828.5,544.5 Z"/></g>
<g><path style="opacity:1" fill="#c5c9ce" d="M 827.5,546.5 C 827.664,549.187 827.497,551.854 827,554.5C 826.329,555.252 825.496,555.586 824.5,555.5C 825.11,554.609 825.443,553.609 825.5,552.5C 826.167,550.5 826.833,548.5 827.5,546.5 Z"/></g>
<g><path style="opacity:1" fill="#76818d" d="M 825.5,552.5 C 825.443,553.609 825.11,554.609 824.5,555.5C 823.833,557.5 823.167,559.5 822.5,561.5C 822.337,559.143 822.503,556.81 823,554.5C 823.708,553.619 824.542,552.953 825.5,552.5 Z"/></g>
<g><path style="opacity:1" fill="#c1c5cb" d="M 824.5,555.5 C 824.664,558.187 824.497,560.854 824,563.5C 823.329,564.252 822.496,564.586 821.5,564.5C 822.11,563.609 822.443,562.609 822.5,561.5C 823.167,559.5 823.833,557.5 824.5,555.5 Z"/></g>
<g><path style="opacity:1" fill="#bdc1c7" d="M 821.5,564.5 C 821.664,567.187 821.497,569.854 821,572.5C 820.586,572.957 820.086,573.291 819.5,573.5C 818.752,576.497 818.085,579.497 817.5,582.5C 817.043,583.298 816.376,583.631 815.5,583.5C 817.181,580.418 817.848,577.085 817.5,573.5C 818.167,572.833 818.833,572.167 819.5,571.5C 820.167,569.167 820.833,566.833 821.5,564.5 Z"/></g>
<g><path style="opacity:1" fill="#747f8c" d="M 822.5,561.5 C 822.443,562.609 822.11,563.609 821.5,564.5C 820.833,566.833 820.167,569.167 819.5,571.5C 819.5,568.833 819.5,566.167 819.5,563.5C 820.5,562.833 821.5,562.167 822.5,561.5 Z"/></g>
<g><path style="opacity:1" fill="#737e8b" d="M 817.5,573.5 C 817.848,577.085 817.181,580.418 815.5,583.5C 814.374,589.306 812.707,594.972 810.5,600.5C 810.18,597.102 810.513,593.768 811.5,590.5C 813.576,584.795 815.576,579.128 817.5,573.5 Z"/></g>
<g><path style="opacity:1" fill="#7e8894" d="M 810.5,600.5 C 809.082,603.061 808.082,605.728 807.5,608.5C 807.5,606.5 807.5,604.5 807.5,602.5C 807.973,601.094 808.973,600.427 810.5,600.5 Z"/></g>
<g><path style="opacity:1" fill="#2d3d51" d="M 807.5,602.5 C 807.5,604.5 807.5,606.5 807.5,608.5C 806.542,608.953 805.708,609.619 805,610.5C 802.511,619.455 800.344,628.455 798.5,637.5C 797.504,637.414 796.671,637.748 796,638.5C 795.974,642.139 795.14,645.472 793.5,648.5C 792.833,650.5 792.167,652.5 791.5,654.5C 791.5,651.167 791.5,647.833 791.5,644.5C 792.5,644.5 793.5,644.5 794.5,644.5C 794.473,638.157 796.306,632.49 800,627.5C 800.498,624.183 800.665,620.85 800.5,617.5C 801.5,617.5 802.5,617.5 803.5,617.5C 803.5,614.167 803.5,610.833 803.5,607.5C 804.5,607.5 805.5,607.5 806.5,607.5C 806.216,605.585 806.549,603.919 807.5,602.5 Z"/></g>
<g><path style="opacity:1" fill="#848d99" d="M 807.5,608.5 C 807.443,609.609 807.11,610.609 806.5,611.5C 805.523,614.287 805.19,617.287 805.5,620.5C 804.5,620.5 803.5,620.5 802.5,620.5C 802.5,623.5 802.5,626.5 802.5,629.5C 801.833,629.833 801.167,630.167 800.5,630.5C 799.833,632.833 799.167,635.167 798.5,637.5C 800.344,628.455 802.511,619.455 805,610.5C 805.708,609.619 806.542,608.953 807.5,608.5 Z"/></g>
<g><path style="opacity:1" fill="#d7d9dc" d="M 806.5,611.5 C 806.5,614.833 806.5,618.167 806.5,621.5C 805.5,621.5 804.5,621.5 803.5,621.5C 803.806,624.385 803.473,627.052 802.5,629.5C 802.5,626.5 802.5,623.5 802.5,620.5C 803.5,620.5 804.5,620.5 805.5,620.5C 805.19,617.287 805.523,614.287 806.5,611.5 Z"/></g>
<g><path style="opacity:1" fill="#d6d9dc" d="M 800.5,630.5 C 800.5,633.833 800.5,637.167 800.5,640.5C 799.5,640.5 798.5,640.5 797.5,640.5C 797.806,643.385 797.473,646.052 796.5,648.5C 796.01,644.513 796.676,640.846 798.5,637.5C 799.167,635.167 799.833,632.833 800.5,630.5 Z"/></g>
<g><path style="opacity:1" fill="#87909b" d="M 798.5,637.5 C 796.676,640.846 796.01,644.513 796.5,648.5C 795.5,648.5 794.5,648.5 793.5,648.5C 795.14,645.472 795.974,642.139 796,638.5C 796.671,637.748 797.504,637.414 798.5,637.5 Z"/></g>
<g><path style="opacity:1" fill="#8d96a1" d="M 793.5,648.5 C 793.5,651.833 793.5,655.167 793.5,658.5C 792.5,658.5 791.5,658.5 790.5,658.5C 790.806,661.385 790.473,664.052 789.5,666.5C 789.5,663.833 789.5,661.167 789.5,658.5C 790.6,657.395 791.267,656.062 791.5,654.5C 792.167,652.5 792.833,650.5 793.5,648.5 Z"/></g>
<g><path style="opacity:1" fill="#51606f" d="M 789.5,658.5 C 789.5,661.167 789.5,663.833 789.5,666.5C 788.391,666.557 787.391,666.89 786.5,667.5C 787.776,664.523 788.776,661.523 789.5,658.5 Z"/></g>
<g><path style="opacity:1" fill="#8f98a2" d="M 789.5,666.5 C 788.047,669.394 787.047,672.394 786.5,675.5C 786.5,672.833 786.5,670.167 786.5,667.5C 787.391,666.89 788.391,666.557 789.5,666.5 Z"/></g>
<g><path style="opacity:1" fill="#536171" d="M 786.5,667.5 C 786.5,670.167 786.5,672.833 786.5,675.5C 785.833,676.167 785.167,676.833 784.5,677.5C 784.167,677.5 783.833,677.5 783.5,677.5C 784.823,674.194 785.823,670.861 786.5,667.5 Z"/></g>
<g><path style="opacity:1" fill="#495768" d="M 783.5,677.5 C 783.5,680.167 783.5,682.833 783.5,685.5C 782.5,685.5 781.5,685.5 780.5,685.5C 781.715,682.846 782.715,680.18 783.5,677.5 Z"/></g>
<g><path style="opacity:1" fill="#98a0aa" d="M 783.5,677.5 C 783.833,677.5 784.167,677.5 784.5,677.5C 784.665,680.518 784.498,683.518 784,686.5C 782.169,688.582 781.002,690.915 780.5,693.5C 780.5,690.833 780.5,688.167 780.5,685.5C 781.5,685.5 782.5,685.5 783.5,685.5C 783.5,682.833 783.5,680.167 783.5,677.5 Z"/></g>
<g><path style="opacity:1" fill="#4d5c6c" d="M 780.5,685.5 C 780.5,688.167 780.5,690.833 780.5,693.5C 779.542,693.953 778.708,694.619 778,695.5C 777.502,698.482 777.335,701.482 777.5,704.5C 776.833,704.5 776.167,704.5 775.5,704.5C 776.252,701.253 776.752,697.919 777,694.5C 778.742,691.623 779.909,688.623 780.5,685.5 Z"/></g>
<g><path style="opacity:1" fill="#979fa8" d="M 780.5,693.5 C 779.098,697.111 778.098,700.778 777.5,704.5C 777.335,701.482 777.502,698.482 778,695.5C 778.708,694.619 779.542,693.953 780.5,693.5 Z"/></g>
<g><path style="opacity:1" fill="#3f4e60" d="M 774.5,705.5 C 774.5,707.5 774.5,709.5 774.5,711.5C 773.504,711.414 772.671,711.748 772,712.5C 771.814,715.036 771.314,717.369 770.5,719.5C 769.74,714.087 771.073,709.421 774.5,705.5 Z"/></g>
<g><path style="opacity:1" fill="#556372" d="M 770.5,719.5 C 770.539,720.756 770.039,721.756 769,722.5C 768.59,732.51 768.09,742.51 767.5,752.5C 766.429,748.322 766.429,743.989 767.5,739.5C 767.334,733.491 767.501,727.491 768,721.5C 768.417,720.244 769.25,719.577 770.5,719.5 Z"/></g>
<g><path style="opacity:1" fill="#3b4b5d" d="M 767.5,739.5 C 766.429,743.989 766.429,748.322 767.5,752.5C 768.055,762.909 769.389,773.242 771.5,783.5C 770.686,781.369 770.186,779.036 770,776.5C 769.586,776.043 769.086,775.709 768.5,775.5C 767.929,768.419 767.095,761.419 766,754.5C 765.333,750.5 765.333,746.5 766,742.5C 766.232,741.263 766.732,740.263 767.5,739.5 Z"/></g>
<g><path style="opacity:1" fill="#e9eaec" d="M 770.5,725.5 C 770.167,739.516 770.501,753.516 771.5,767.5C 772.086,767.709 772.586,768.043 773,768.5C 773.219,773.582 773.719,778.582 774.5,783.5C 773.833,783.5 773.167,783.5 772.5,783.5C 772.666,779.486 772.499,775.486 772,771.5C 771.581,770.328 770.915,769.328 770,768.5C 769.173,753.994 769.339,739.661 770.5,725.5 Z"/></g>
<g><path style="opacity:1" fill="#9ca4ad" d="M 774.5,711.5 C 773.167,716.167 771.833,720.833 770.5,725.5C 769.339,739.661 769.173,753.994 770,768.5C 770.915,769.328 771.581,770.328 772,771.5C 772.499,775.486 772.666,779.486 772.5,783.5C 772.167,783.5 771.833,783.5 771.5,783.5C 769.389,773.242 768.055,762.909 767.5,752.5C 768.09,742.51 768.59,732.51 769,722.5C 770.039,721.756 770.539,720.756 770.5,719.5C 771.314,717.369 771.814,715.036 772,712.5C 772.671,711.748 773.504,711.414 774.5,711.5 Z"/></g>
<g><path style="opacity:1" fill="#526070" d="M 771.5,783.5 C 771.833,783.5 772.167,783.5 772.5,783.5C 774.299,786.505 774.966,789.838 774.5,793.5C 773.865,790.114 772.865,786.78 771.5,783.5 Z"/></g>
<g><path style="opacity:1" fill="#a0a7b0" d="M 772.5,783.5 C 773.167,783.5 773.833,783.5 774.5,783.5C 775.479,786.625 775.813,789.958 775.5,793.5C 775.167,793.5 774.833,793.5 774.5,793.5C 774.966,789.838 774.299,786.505 772.5,783.5 Z"/></g>
<g><path style="opacity:1" fill="#949da6" d="M 775.5,793.5 C 777.876,794.206 779.21,795.873 779.5,798.5C 778.833,798.5 778.167,798.5 777.5,798.5C 777.608,796.486 776.942,794.82 775.5,793.5 Z"/></g>
<g><path style="opacity:1" fill="#838d98" d="M 780.5,798.5 C 781.345,799.671 782.011,801.005 782.5,802.5C 780.824,801.817 780.157,800.483 780.5,798.5 Z"/></g>
<g><path style="opacity:1" fill="#39495b" d="M 777.5,798.5 C 778.167,798.5 778.833,798.5 779.5,798.5C 779.833,798.5 780.167,798.5 780.5,798.5C 780.157,800.483 780.824,801.817 782.5,802.5C 782.833,802.5 783.167,802.5 783.5,802.5C 783.392,804.514 784.058,806.18 785.5,807.5C 783.088,807.306 782.088,805.973 782.5,803.5C 781.5,803.5 780.5,803.5 779.5,803.5C 779.635,801.446 778.968,799.779 777.5,798.5 Z"/></g>
<g><path style="opacity:1" fill="#a5acb4" d="M 783.5,802.5 C 786.48,803.829 787.813,806.163 787.5,809.5C 786.833,808.833 786.167,808.167 785.5,807.5C 784.058,806.18 783.392,804.514 783.5,802.5 Z"/></g>
<g><path style="opacity:1" fill="#495868" d="M 785.5,807.5 C 786.167,808.167 786.833,808.833 787.5,809.5C 789.328,810.283 790.661,811.616 791.5,813.5C 788.065,812.808 786.065,810.808 785.5,807.5 Z"/></g>
<g><path style="opacity:1" fill="#c6cacf" d="M 787.5,809.5 C 790.522,809.342 792.522,810.675 793.5,813.5C 792.833,813.5 792.167,813.5 791.5,813.5C 790.661,811.616 789.328,810.283 787.5,809.5 Z"/></g>
<g><path style="opacity:1" fill="#b9bec4" d="M 793.5,813.5 C 799.665,815.001 804.998,818.001 809.5,822.5C 808.127,822.657 806.793,822.49 805.5,822C 803.478,819.991 801.145,818.491 798.5,817.5C 796.833,816.167 795.167,814.833 793.5,813.5 Z"/></g>
<g><path style="opacity:1" fill="#3b4a5c" d="M 791.5,813.5 C 792.167,813.5 792.833,813.5 793.5,813.5C 795.167,814.833 796.833,816.167 798.5,817.5C 796.139,817.326 793.806,816.993 791.5,816.5C 791.5,815.5 791.5,814.5 791.5,813.5 Z"/></g>
<g><path style="opacity:1" fill="#7f8996" d="M 809.5,822.5 C 811.632,822.554 812.965,823.554 813.5,825.5C 811.368,825.446 810.035,824.446 809.5,822.5 Z"/></g>
<g><path style="opacity:1" fill="#4f5d6e" d="M 813.5,825.5 C 814.167,825.5 814.833,825.5 815.5,825.5C 815.833,826.167 816.167,826.833 816.5,827.5C 814.821,827.715 813.821,827.048 813.5,825.5 Z"/></g>
<g><path style="opacity:1" fill="#c0c5ca" d="M 815.5,825.5 C 818.546,825.725 820.879,827.058 822.5,829.5C 820.685,828.37 818.685,827.704 816.5,827.5C 816.167,826.833 815.833,826.167 815.5,825.5 Z"/></g>
<g><path style="opacity:1" fill="#3f4e60" d="M 816.5,827.5 C 818.685,827.704 820.685,828.37 822.5,829.5C 822.842,830.338 823.508,830.672 824.5,830.5C 824.973,831.906 825.973,832.573 827.5,832.5C 828.167,832.5 828.5,832.833 828.5,833.5C 823.618,833.059 819.618,831.059 816.5,827.5 Z"/></g>
<g><path style="opacity:1" fill="#9aa2aa" d="M 824.5,830.5 C 826.027,830.427 827.027,831.094 827.5,832.5C 825.973,832.573 824.973,831.906 824.5,830.5 Z"/></g>
<g><path style="opacity:1" fill="#b4bac0" d="M 837.5,836.5 C 840.481,836.182 842.815,837.182 844.5,839.5C 844.167,839.5 843.833,839.5 843.5,839.5C 841.216,838.971 839.216,837.971 837.5,836.5 Z"/></g>
<g><path style="opacity:1" fill="#6d7986" d="M 843.5,839.5 C 843.833,839.5 844.167,839.5 844.5,839.5C 845.5,840.167 846.5,840.833 847.5,841.5C 845.517,841.843 844.183,841.176 843.5,839.5 Z"/></g>
<g><path style="opacity:1" fill="#969ea7" d="M 847.5,841.5 C 850.577,841.179 852.91,842.179 854.5,844.5C 851.843,844.065 849.509,843.065 847.5,841.5 Z"/></g>
<g><path style="opacity:1" fill="#77818e" d="M 859.5,846.5 C 862.157,846.935 864.491,847.935 866.5,849.5C 863.509,849.834 861.176,848.834 859.5,846.5 Z"/></g>
<g><path style="opacity:1" fill="#7a8491" d="M 867.5,849.5 C 868.833,849.5 869.5,850.167 869.5,851.5C 869.5,850.167 868.833,849.5 867.5,849.5 Z"/></g>
<g><path style="opacity:1" fill="#8d96a1" d="M 872.5,852.5 C 874.898,852.259 876.898,852.926 878.5,854.5C 876.102,854.741 874.102,854.074 872.5,852.5 Z"/></g>
<g><path style="opacity:1" fill="#c2c6cc" d="M 879.5,854.5 C 881.801,855.06 884.134,855.56 886.5,856C 887.056,856.383 887.389,856.883 887.5,857.5C 886.167,857.167 884.833,856.833 883.5,856.5C 881.62,856.771 880.287,856.104 879.5,854.5 Z"/></g>
<g><path style="opacity:1" fill="#717c89" d="M 883.5,856.5 C 884.833,856.833 886.167,857.167 887.5,857.5C 888.167,857.5 888.5,857.833 888.5,858.5C 886.302,858.88 884.635,858.213 883.5,856.5 Z"/></g>
<g><path style="opacity:1" fill="#76818e" d="M 890.5,859.5 C 894.165,859.502 897.165,860.835 899.5,863.5C 896.088,862.925 893.088,861.592 890.5,859.5 Z"/></g>
<g><path style="opacity:1" fill="#6e7987" d="M 901.5,863.5 C 903.698,863.875 905.698,864.542 907.5,865.5C 904.99,865.946 902.99,865.28 901.5,863.5 Z"/></g>
<g><path style="opacity:1" fill="#546171" d="M 910.5,867.5 C 913.327,867.584 915.994,868.25 918.5,869.5C 918.5,869.833 918.5,870.167 918.5,870.5C 915.374,870.515 912.707,869.515 910.5,867.5 Z"/></g>
<g><path style="opacity:1" fill="#76818e" d="M 918.5,870.5 C 918.5,870.167 918.5,869.833 918.5,869.5C 921.7,870.588 924.7,871.921 927.5,873.5C 923.997,873.871 920.997,872.871 918.5,870.5 Z"/></g>
<g><path style="opacity:1" fill="#536071" d="M 928.5,874.5 C 931.855,874.69 934.855,875.69 937.5,877.5C 934.017,877.673 931.017,876.673 928.5,874.5 Z"/></g>
<g><path style="opacity:1" fill="#979fa9" d="M 937.5,877.5 C 940.916,877.528 943.916,878.528 946.5,880.5C 943.145,880.31 940.145,879.31 937.5,877.5 Z"/></g>
<g><path style="opacity:1" fill="#9ca3ac" d="M 948.5,881.5 C 950.898,881.259 952.898,881.926 954.5,883.5C 952.102,883.741 950.102,883.074 948.5,881.5 Z"/></g>
<g><path style="opacity:1" fill="#9099a3" d="M 955.5,884.5 C 958.916,884.528 961.916,885.528 964.5,887.5C 961.145,887.31 958.145,886.31 955.5,884.5 Z"/></g>
<g><path style="opacity:1" fill="#6c7785" d="M 964.5,887.5 C 966.117,888.038 967.784,888.371 969.5,888.5C 969.833,889.167 970.167,889.833 970.5,890.5C 967.895,890.379 965.895,889.379 964.5,887.5 Z"/></g>
<g><path style="opacity:1" fill="#b4bac1" d="M 969.5,888.5 C 974.525,889.198 978.858,891.198 982.5,894.5C 978.545,893.197 974.545,891.864 970.5,890.5C 970.167,889.833 969.833,889.167 969.5,888.5 Z"/></g>
<g><path style="opacity:1" fill="#626f7d" d="M 982.5,894.5 C 984.967,894.755 986.967,895.755 988.5,897.5C 985.895,897.379 983.895,896.379 982.5,894.5 Z"/></g>
<g><path style="opacity:1" fill="#98a0a9" d="M 993.5,898.5 C 997.358,898.77 1000.69,900.103 1003.5,902.5C 999.603,902.274 996.27,900.941 993.5,898.5 Z"/></g>
<g><path style="opacity:1" fill="#8e97a1" d="M 1004.5,902.5 C 1006.4,902.796 1008.07,903.463 1009.5,904.5C 1007.3,904.88 1005.64,904.213 1004.5,902.5 Z"/></g>
<g><path style="opacity:1" fill="#a7aeb5" d="M 1012.5,905.5 C 1016.28,905.944 1019.61,907.277 1022.5,909.5C 1019.45,908.964 1016.45,908.131 1013.5,907C 1012.94,906.617 1012.61,906.117 1012.5,905.5 Z"/></g>
<g><path style="opacity:1" fill="#828c97" d="M 1022.5,909.5 C 1024.4,909.796 1026.07,910.463 1027.5,911.5C 1025.3,911.88 1023.64,911.213 1022.5,909.5 Z"/></g>
<g><path style="opacity:1" fill="#626e7d" d="M 1027.5,911.5 C 1029.15,911.66 1030.49,912.326 1031.5,913.5C 1029.62,913.771 1028.29,913.104 1027.5,911.5 Z"/></g>
<g><path style="opacity:1" fill="#8f97a2" d="M 1031.5,913.5 C 1034.92,913.528 1037.92,914.528 1040.5,916.5C 1037.14,916.31 1034.14,915.31 1031.5,913.5 Z"/></g>
<g><path style="opacity:1" fill="#6e7987" d="M 1040.5,916.5 C 1043.16,916.935 1045.49,917.935 1047.5,919.5C 1044.51,919.834 1042.18,918.834 1040.5,916.5 Z"/></g>
<g><path style="opacity:1" fill="#6b7785" d="M 1053.5,921.5 C 1055.4,921.796 1057.07,922.463 1058.5,923.5C 1056.3,923.88 1054.64,923.213 1053.5,921.5 Z"/></g>
<g><path style="opacity:1" fill="#cfd2d6" d="M 1058.5,923.5 C 1061.25,923.187 1063.91,923.52 1066.5,924.5C 1067.99,925.141 1068.99,926.141 1069.5,927.5C 1066.99,926.25 1064.33,925.584 1061.5,925.5C 1060.5,924.833 1059.5,924.167 1058.5,923.5 Z"/></g>
<g><path style="opacity:1" fill="#3d4c5e" d="M 1061.5,925.5 C 1064.33,925.584 1066.99,926.25 1069.5,927.5C 1069.5,927.833 1069.5,928.167 1069.5,928.5C 1066.37,928.515 1063.71,927.515 1061.5,925.5 Z"/></g>
<g><path style="opacity:1" fill="#adb3ba" d="M 1069.5,928.5 C 1069.5,928.167 1069.5,927.833 1069.5,927.5C 1071.9,927.259 1073.9,927.926 1075.5,929.5C 1074.83,929.5 1074.17,929.5 1073.5,929.5C 1072.17,929.167 1070.83,928.833 1069.5,928.5 Z"/></g>
<g><path style="opacity:1" fill="#4c5b6b" d="M 1073.5,929.5 C 1074.17,929.5 1074.83,929.5 1075.5,929.5C 1076.39,930.11 1077.39,930.443 1078.5,930.5C 1078.5,930.833 1078.5,931.167 1078.5,931.5C 1076.3,931.88 1074.64,931.213 1073.5,929.5 Z"/></g>
<g><path style="opacity:1" fill="#bec3c9" d="M 1078.5,931.5 C 1078.5,931.167 1078.5,930.833 1078.5,930.5C 1081.49,930.166 1083.82,931.166 1085.5,933.5C 1082.89,933.6 1080.56,932.933 1078.5,931.5 Z"/></g>
<g><path style="opacity:1" fill="#b5bbc1" d="M 1088.5,934.5 C 1090.8,935.06 1093.13,935.56 1095.5,936C 1096.06,936.383 1096.39,936.883 1096.5,937.5C 1094.2,936.94 1091.87,936.44 1089.5,936C 1088.94,935.617 1088.61,935.117 1088.5,934.5 Z"/></g>
<g><path style="opacity:1" fill="#9aa1ab" d="M 1096.5,937.5 C 1099.24,937.706 1101.57,938.706 1103.5,940.5C 1100.52,940.818 1098.19,939.818 1096.5,937.5 Z"/></g>
<g><path style="opacity:1" fill="#acb2ba" d="M 1106.5,941.5 C 1108.8,942.06 1111.13,942.56 1113.5,943C 1114.06,943.383 1114.39,943.883 1114.5,944.5C 1112.2,943.94 1109.87,943.44 1107.5,943C 1106.94,942.617 1106.61,942.117 1106.5,941.5 Z"/></g>
<g><path style="opacity:1" fill="#7d8793" d="M 1115.5,944.5 C 1118.3,945.65 1120.96,946.983 1123.5,948.5C 1119.98,948.741 1117.31,947.407 1115.5,944.5 Z"/></g>
<g><path style="opacity:1" fill="#bdc2c8" d="M 1126.5,949.5 C 1128.53,949.338 1130.53,949.505 1132.5,950C 1133.06,950.383 1133.39,950.883 1133.5,951.5C 1130.85,951.59 1128.51,950.924 1126.5,949.5 Z"/></g>
<g><path style="opacity:1" fill="#919ba4" d="M 1133.5,951.5 C 1135.03,951.427 1136.03,952.094 1136.5,953.5C 1134.97,953.573 1133.97,952.906 1133.5,951.5 Z"/></g>
<g><path style="opacity:1" fill="#9ea5ae" d="M 1137.5,954.5 C 1140.25,954.187 1142.91,954.52 1145.5,955.5C 1147.88,956.011 1149.88,957.011 1151.5,958.5C 1146.6,957.506 1141.93,956.172 1137.5,954.5 Z"/></g>
<g><path style="opacity:1" fill="#c3c7cd" d="M 1152.5,959.5 C 1155.25,959.187 1157.91,959.52 1160.5,960.5C 1160.86,961.183 1161.2,961.85 1161.5,962.5C 1158.29,961.921 1155.29,960.921 1152.5,959.5 Z"/></g>
<g><path style="opacity:1" fill="#c4c8cd" d="M 1161.5,962.5 C 1164.92,962.528 1167.92,963.528 1170.5,965.5C 1168.44,965.483 1166.44,965.15 1164.5,964.5C 1163.5,963.833 1162.5,963.167 1161.5,962.5 Z"/></g>
<g><path style="opacity:1" fill="#3c4b5d" d="M 1164.5,964.5 C 1166.44,965.15 1168.44,965.483 1170.5,965.5C 1170.84,966.338 1171.51,966.672 1172.5,966.5C 1172.5,966.833 1172.5,967.167 1172.5,967.5C 1169.08,967.977 1166.42,966.977 1164.5,964.5 Z"/></g>
<g><path style="opacity:1" fill="#c2c6cc" d="M 1172.5,967.5 C 1172.5,967.167 1172.5,966.833 1172.5,966.5C 1177.38,966.369 1181.38,968.036 1184.5,971.5C 1183.83,971.5 1183.17,971.5 1182.5,971.5C 1179.21,970.172 1175.88,968.838 1172.5,967.5 Z"/></g>
<g><path style="opacity:1" fill="#4e5c6c" d="M 1182.5,971.5 C 1183.17,971.5 1183.83,971.5 1184.5,971.5C 1186.75,972.455 1189.08,973.122 1191.5,973.5C 1191.5,973.833 1191.5,974.167 1191.5,974.5C 1188.02,974.673 1185.02,973.673 1182.5,971.5 Z"/></g>
<g><path style="opacity:1" fill="#bec2c8" d="M 1191.5,974.5 C 1191.5,974.167 1191.5,973.833 1191.5,973.5C 1196.94,974.61 1201.94,976.61 1206.5,979.5C 1205.83,979.5 1205.17,979.5 1204.5,979.5C 1202.44,978.067 1200.11,977.4 1197.5,977.5C 1195.89,975.912 1193.89,974.912 1191.5,974.5 Z"/></g>
<g><path style="opacity:1" fill="#485668" d="M 1191.5,974.5 C 1193.89,974.912 1195.89,975.912 1197.5,977.5C 1194.9,977.379 1192.9,976.379 1191.5,974.5 Z"/></g>
<g><path style="opacity:1" fill="#9ba3ac" d="M 1210.5,981.5 C 1213.58,981.179 1215.91,982.179 1217.5,984.5C 1215.9,984.768 1214.57,984.434 1213.5,983.5C 1212.5,982.833 1211.5,982.167 1210.5,981.5 Z"/></g>
<g><path style="opacity:1" fill="#2f3f53" d="M 1204.5,979.5 C 1205.17,979.5 1205.83,979.5 1206.5,979.5C 1207.83,980.167 1209.17,980.833 1210.5,981.5C 1211.5,982.167 1212.5,982.833 1213.5,983.5C 1209.65,983.89 1206.65,982.556 1204.5,979.5 Z"/></g>
<g><path style="opacity:1" fill="#8b959f" d="M 1220.5,985.5 C 1222.9,985.259 1224.9,985.926 1226.5,987.5C 1224.1,987.741 1222.1,987.074 1220.5,985.5 Z"/></g>
<g><path style="opacity:1" fill="#b8bdc4" d="M 1227.5,987.5 C 1229.8,988.06 1232.13,988.56 1234.5,989C 1235.06,989.383 1235.39,989.883 1235.5,990.5C 1234.17,990.167 1232.83,989.833 1231.5,989.5C 1229.62,989.771 1228.29,989.104 1227.5,987.5 Z"/></g>
<g><path style="opacity:1" fill="#4c5a6a" d="M 1231.5,989.5 C 1232.83,989.833 1234.17,990.167 1235.5,990.5C 1235.83,990.5 1236.17,990.5 1236.5,990.5C 1238.5,991.833 1240.5,993.167 1242.5,994.5C 1238.15,994.154 1234.48,992.487 1231.5,989.5 Z"/></g>
<g><path style="opacity:1" fill="#d3d6da" d="M 1236.5,990.5 C 1239.13,991.105 1241.79,991.605 1244.5,992C 1245.38,992.708 1246.05,993.542 1246.5,994.5C 1245.17,994.5 1243.83,994.5 1242.5,994.5C 1240.5,993.167 1238.5,991.833 1236.5,990.5 Z"/></g>
<g><path style="opacity:1" fill="#6a7684" d="M 1246.5,995.5 C 1250.41,996.4 1254.08,997.733 1257.5,999.5C 1253.25,999.528 1249.58,998.195 1246.5,995.5 Z"/></g>
<g><path style="opacity:1" fill="#4c5a6b" d="M 1258.5,1000.5 C 1261.86,1000.69 1264.86,1001.69 1267.5,1003.5C 1264.02,1003.67 1261.02,1002.67 1258.5,1000.5 Z"/></g>
<g><path style="opacity:1" fill="#364558" d="M 1270.5,1004.5 C 1273.38,1004.94 1276.05,1005.94 1278.5,1007.5C 1278.5,1007.83 1278.5,1008.17 1278.5,1008.5C 1275.9,1007.73 1273.24,1007.4 1270.5,1007.5C 1270.5,1006.5 1270.5,1005.5 1270.5,1004.5 Z"/></g>
<g><path style="opacity:1" fill="#929ba5" d="M 1278.5,1008.5 C 1278.5,1008.17 1278.5,1007.83 1278.5,1007.5C 1280.9,1007.26 1282.9,1007.93 1284.5,1009.5C 1282.44,1009.48 1280.44,1009.15 1278.5,1008.5 Z"/></g>
<g><path style="opacity:1" fill="#bec2c8" d="M 1285.5,1010.5 C 1288.25,1010.19 1290.91,1010.52 1293.5,1011.5C 1294.99,1012.14 1295.99,1013.14 1296.5,1014.5C 1292.85,1012.83 1289.19,1011.5 1285.5,1010.5 Z"/></g>
<g><path style="opacity:1" fill="#8a929d" d="M 1296.5,1014.5 C 1298.9,1014.26 1300.9,1014.93 1302.5,1016.5C 1300.1,1016.74 1298.1,1016.07 1296.5,1014.5 Z"/></g>
<g><path style="opacity:1" fill="#b8bdc3" d="M 1303.5,1016.5 C 1305.8,1017.06 1308.13,1017.56 1310.5,1018C 1311.06,1018.38 1311.39,1018.88 1311.5,1019.5C 1310.17,1019.17 1308.83,1018.83 1307.5,1018.5C 1305.62,1018.77 1304.29,1018.1 1303.5,1016.5 Z"/></g>
<g><path style="opacity:1" fill="#d5d7db" d="M 1312.5,1019.5 C 1317.3,1019.69 1321.3,1021.36 1324.5,1024.5C 1324.17,1024.5 1323.83,1024.5 1323.5,1024.5C 1319.63,1023 1315.96,1021.33 1312.5,1019.5 Z"/></g>
<g><path style="opacity:1" fill="#505e6e" d="M 1307.5,1018.5 C 1308.83,1018.83 1310.17,1019.17 1311.5,1019.5C 1311.83,1019.5 1312.17,1019.5 1312.5,1019.5C 1315.96,1021.33 1319.63,1023 1323.5,1024.5C 1323.5,1024.83 1323.5,1025.17 1323.5,1025.5C 1319.95,1024.04 1316.29,1022.87 1312.5,1022C 1310.42,1021.3 1308.75,1020.14 1307.5,1018.5 Z"/></g>
<g><path style="opacity:1" fill="#949da7" d="M 1323.5,1025.5 C 1323.5,1025.17 1323.5,1024.83 1323.5,1024.5C 1323.83,1024.5 1324.17,1024.5 1324.5,1024.5C 1327.24,1024.71 1329.57,1025.71 1331.5,1027.5C 1328.55,1027.71 1325.88,1027.05 1323.5,1025.5 Z"/></g>
<g><path style="opacity:1" fill="#9ca4ad" d="M 1341.5,1031.5 C 1343.9,1031.26 1345.9,1031.93 1347.5,1033.5C 1345.1,1033.74 1343.1,1033.07 1341.5,1031.5 Z"/></g>
<g><path style="opacity:1" fill="#aab0b8" d="M 1347.5,1033.5 C 1351.59,1034.43 1355.59,1035.6 1359.5,1037C 1360.06,1037.38 1360.39,1037.88 1360.5,1038.5C 1355.55,1038.16 1351.21,1036.49 1347.5,1033.5 Z"/></g>
<g><path style="opacity:1" fill="#9aa2ab" d="M 1361.5,1039.5 C 1364.15,1039.41 1366.49,1040.08 1368.5,1041.5C 1365.85,1041.59 1363.51,1040.92 1361.5,1039.5 Z"/></g>
<g><path style="opacity:1" fill="#a5acb4" d="M 1371.5,1043.5 C 1376.1,1043.47 1380.1,1044.8 1383.5,1047.5C 1379.35,1046.37 1375.35,1045.04 1371.5,1043.5 Z"/></g>
<g><path style="opacity:1" fill="#75808c" d="M 1383.5,1047.5 C 1385.4,1047.8 1387.07,1048.46 1388.5,1049.5C 1386.3,1049.88 1384.64,1049.21 1383.5,1047.5 Z"/></g>
<g><path style="opacity:1" fill="#cccfd4" d="M 1388.5,1049.5 C 1391.25,1049.19 1393.91,1049.52 1396.5,1050.5C 1396.86,1051.18 1397.2,1051.85 1397.5,1052.5C 1394.14,1052.31 1391.14,1051.31 1388.5,1049.5 Z"/></g>
<g><path style="opacity:1" fill="#b2b7be" d="M 1399.5,1053.5 C 1401.9,1053.26 1403.9,1053.93 1405.5,1055.5C 1403.1,1055.74 1401.1,1055.07 1399.5,1053.5 Z"/></g>
<g><path style="opacity:1" fill="#7a8591" d="M 1409.5,1057.5 C 1411.8,1058.06 1414.13,1058.56 1416.5,1059C 1417.06,1059.38 1417.39,1059.88 1417.5,1060.5C 1414.28,1060.65 1411.62,1059.65 1409.5,1057.5 Z"/></g>
<g><path style="opacity:1" fill="#bbc0c6" d="M 1418.5,1060.5 C 1421.01,1060.93 1423.34,1061.59 1425.5,1062.5C 1424.17,1062.5 1422.83,1062.5 1421.5,1062.5C 1419.97,1062.57 1418.97,1061.91 1418.5,1060.5 Z"/></g>
<g><path style="opacity:1" fill="#687482" d="M 1421.5,1062.5 C 1422.83,1062.5 1424.17,1062.5 1425.5,1062.5C 1425.5,1063.17 1425.83,1063.5 1426.5,1063.5C 1426.5,1063.83 1426.5,1064.17 1426.5,1064.5C 1424.3,1064.88 1422.64,1064.21 1421.5,1062.5 Z"/></g>
<g><path style="opacity:1" fill="#9fa6af" d="M 1426.5,1064.5 C 1426.5,1064.17 1426.5,1063.83 1426.5,1063.5C 1429.24,1063.71 1431.57,1064.71 1433.5,1066.5C 1430.89,1066.6 1428.56,1065.93 1426.5,1064.5 Z"/></g>
<g><path style="opacity:1" fill="#b1b6bd" d="M 1436.5,1067.5 C 1438.8,1068.06 1441.13,1068.56 1443.5,1069C 1444.06,1069.38 1444.39,1069.88 1444.5,1070.5C 1443.17,1070.17 1441.83,1069.83 1440.5,1069.5C 1438.62,1069.77 1437.29,1069.1 1436.5,1067.5 Z"/></g>
<g><path style="opacity:1" fill="#445364" d="M 1440.5,1069.5 C 1441.83,1069.83 1443.17,1070.17 1444.5,1070.5C 1446.11,1071.69 1447.78,1072.69 1449.5,1073.5C 1445.84,1073.5 1442.84,1072.16 1440.5,1069.5 Z"/></g>
<g><path style="opacity:1" fill="#515f6f" d="M 1449.5,1073.5 C 1452.08,1073.39 1454.41,1074.06 1456.5,1075.5C 1456.5,1075.83 1456.5,1076.17 1456.5,1076.5C 1453.84,1076.07 1451.51,1075.07 1449.5,1073.5 Z"/></g>
<g><path style="opacity:1" fill="#c4c8cd" d="M 1456.5,1076.5 C 1456.5,1076.17 1456.5,1075.83 1456.5,1075.5C 1458.53,1075.34 1460.53,1075.5 1462.5,1076C 1463.06,1076.38 1463.39,1076.88 1463.5,1077.5C 1461.71,1077.63 1460.04,1077.3 1458.5,1076.5C 1457.83,1076.5 1457.17,1076.5 1456.5,1076.5 Z"/></g>
<g><path style="opacity:1" fill="#505e6e" d="M 1458.5,1076.5 C 1460.04,1077.3 1461.71,1077.63 1463.5,1077.5C 1464.34,1077.84 1464.67,1078.51 1464.5,1079.5C 1463.5,1079.5 1462.5,1079.5 1461.5,1079.5C 1460.1,1078.9 1459.1,1077.9 1458.5,1076.5 Z"/></g>
</svg>
